<svg xmlns="http://www.w3.org/2000/svg" width="1387" height="756" viewBox="0 0 1387 756">
<g>
<path d="M 749.16 388.50 L 748.44 392.50 L 687.28 392.76 C644.57,392.94 625.93,392.69 625.46,391.94 C625.10,391.35 625.07,389.44 625.39,387.69 C626.69,380.69 622.60,366.26 616.85,357.58 C615.13,354.99 611.34,350.99 608.42,348.69 C605.50,346.38 603.09,344.14 603.06,343.70 C602.99,342.70 754.55,343.22 755.55,344.22 C756.13,344.80 752.38,370.84 749.16,388.50 ZM 573.77 435.97 C567.92,437.32 559.35,437.13 554.29,435.55 C541.15,431.45 532.83,421.79 530.00,407.39 C529.01,402.39 529.08,399.90 530.39,392.96 C532.50,381.76 535.95,375.11 544.10,366.53 C554.94,355.12 566.01,350.38 579.92,351.22 C601.39,352.51 615.59,371.33 612.04,393.82 C608.78,414.50 593.40,431.44 573.77,435.97 ZM 855.63 435.61 C845.25,438.37 832.76,436.53 825.13,431.10 C805.27,416.95 805.38,385.59 825.35,365.61 C842.34,348.63 866.65,346.22 882.30,359.96 C884.16,361.59 887.20,365.76 889.05,369.21 C892.00,374.73 892.46,376.61 892.82,384.61 C893.48,399.36 889.61,409.70 879.18,421.07 C872.68,428.15 864.38,433.28 855.63,435.61 ZM 688.03 559.60 C685.13,561.52 682.37,562.34 677.78,562.67 C670.23,563.20 663.71,560.54 656.67,554.05 C654.23,551.80 650.18,549.26 647.67,548.40 C645.16,547.55 641.05,545.04 638.54,542.83 C626.91,532.59 624.04,517.24 631.12,503.08 C636.61,492.08 645.46,486.65 658.02,486.56 C664.56,486.51 666.40,486.93 672.21,489.78 C683.34,495.26 689.00,504.77 689.00,517.97 C689.00,530.35 682.93,541.47 673.97,545.51 L 669.78 547.40 L 672.00 549.20 C674.89,551.54 678.71,551.48 682.75,549.01 L 686.01 547.03 L 689.00 551.16 C690.65,553.44 692.00,555.68 692.00,556.14 C692.00,556.60 690.21,558.15 688.03,559.60 ZM 798.59 547.88 C783.68,553.46 766.87,547.65 760.58,534.73 C751.73,516.57 758.05,496.29 774.95,488.65 C781.45,485.72 792.74,485.81 799.50,488.85 C805.81,491.69 811.43,497.07 814.79,503.50 C817.08,507.89 817.40,509.67 817.37,518.00 C817.35,526.22 816.98,528.26 814.64,533.16 C811.26,540.24 805.92,545.14 798.59,547.88 ZM 517.57 390.25 L 516.96 393.00 L 501.73 393.00 C484.63,392.99 481.69,392.09 478.62,385.93 C476.46,381.60 476.56,378.83 479.56,360.85 C481.35,350.14 482.62,345.12 483.75,344.25 C485.75,342.72 549.52,342.42 550.46,343.94 C550.78,344.45 548.89,346.32 546.27,348.08 C531.99,357.68 521.31,373.37 517.57,390.25 ZM 396.23 532.99 L 395.95 549.00 L 380.97 549.00 L 381.24 518.25 L 381.50 487.50 L 393.50 486.98 L 418.50 520.41 L 418.77 503.66 L 419.05 486.91 L 426.27 487.21 L 433.50 487.50 L 433.76 518.25 L 434.03 549.00 L 427.70 549.00 C420.33,549.00 420.30,548.97 409.68,534.50 C406.05,529.55 401.60,523.58 399.79,521.24 L 396.50 516.98 ZM 1096.10 516.50 L 1096.00 549.00 L 1080.97 549.00 L 1081.24 518.25 L 1081.50 487.50 L 1087.61 487.21 L 1093.72 486.91 L 1104.98 502.47 C1111.17,511.03 1116.64,518.28 1117.12,518.57 C1118.18,519.23 1118.31,517.33 1118.42,500.50 L 1118.50 487.50 L 1126.00 487.50 C1131.39,487.50 1133.47,487.85 1133.40,488.75 C1133.34,489.44 1133.23,503.30 1133.15,519.55 L 1133.00 549.09 L 1126.27 548.80 L 1119.55 548.50 L 1110.77 536.00 C1105.94,529.12 1100.66,521.92 1099.04,520.00 ZM 528.29 543.52 L 526.44 548.50 L 518.72 548.79 C513.04,549.01 511.00,548.75 511.00,547.83 C511.00,546.66 512.95,541.61 521.71,520.00 C523.61,515.33 526.44,508.35 528.00,504.50 C529.56,500.65 531.70,495.25 532.74,492.50 L 534.64 487.50 L 542.17 487.21 C547.42,487.01 550.02,487.31 550.77,488.22 C551.36,488.94 555.66,498.97 560.32,510.51 C564.98,522.06 570.19,534.88 571.89,539.00 C573.60,543.12 574.99,547.06 575.00,547.75 C575.00,548.64 572.76,549.00 567.12,549.00 L 566.65 549.00 C562.61,549.00 560.62,549.00 559.37,548.04 C558.10,547.07 557.59,545.12 556.48,541.19 C556.12,539.92 554.71,538.46 553.35,537.94 C550.41,536.83 533.02,536.70 531.32,537.78 C530.67,538.19 529.31,540.78 528.29,543.52 ZM 329.59 543.00 L 327.38 548.50 L 319.69 548.79 C313.91,549.01 312.01,548.76 312.03,547.79 C312.04,547.08 317.35,533.22 323.83,517.00 L 335.61 487.50 L 343.57 487.21 L 351.54 486.93 L 358.84 505.21 C362.86,515.27 368.14,528.45 370.58,534.50 C370.73,534.88 370.88,535.26 371.03,535.62 C374.19,543.45 375.52,546.75 374.44,548.07 C373.65,549.04 371.58,548.96 368.00,548.82 C367.77,548.81 367.54,548.80 367.30,548.79 L 359.59 548.50 L 355.40 537.50 L 331.80 537.50 ZM 1029.33 543.34 L 1027.48 548.50 L 1020.33 548.79 C1016.39,548.95 1012.91,548.66 1012.59,548.15 C1012.27,547.63 1013.56,543.45 1015.44,538.86 C1017.33,534.26 1022.34,521.72 1026.59,511.00 C1030.83,500.27 1034.76,490.49 1035.31,489.25 C1036.22,487.22 1037.02,487.00 1043.54,487.00 C1048.12,487.00 1051.11,487.46 1051.74,488.25 C1052.28,488.94 1056.35,498.50 1060.79,509.50 C1065.23,520.50 1070.46,533.25 1072.43,537.84 C1074.39,542.42 1076.00,546.81 1076.00,547.59 C1076.00,548.68 1074.24,549.00 1068.16,549.00 L 1060.33 549.00 L 1055.15 537.00 L 1045.32 537.01 C1031.98,537.03 1031.53,537.21 1029.33,543.34 ZM 995.71 547.67 C993.75,548.70 989.39,549.50 984.50,549.73 C977.63,550.05 975.79,549.76 971.46,547.69 C968.69,546.37 965.18,543.82 963.67,542.02 C958.19,535.51 957.75,533.26 957.24,509.21 L 956.76 486.91 L 964.63 487.21 L 972.50 487.50 L 973.00 508.50 C973.28,520.05 973.90,530.30 974.38,531.29 C975.42,533.44 980.10,536.00 983.00,536.00 C986.45,536.00 990.86,533.17 992.57,529.87 C993.89,527.31 994.15,523.31 994.07,506.88 L 993.96 487.00 L 1009.00 487.00 L 1008.99 508.75 C1008.98,529.51 1008.87,530.73 1006.62,535.58 C1003.95,541.30 1000.44,545.19 995.71,547.67 ZM 733.12 548.46 C724.46,551.51 710.49,549.46 704.79,544.31 C703.69,543.31 701.62,540.51 700.20,538.07 C697.64,533.72 697.59,533.26 697.17,510.28 L 696.75 486.91 L 704.12 487.20 L 711.50 487.50 L 712.01 508.00 C712.57,530.10 712.97,531.90 717.98,534.49 C721.63,536.38 724.33,536.40 727.85,534.58 C733.27,531.78 733.23,532.05 733.94,490.21 L 734.00 486.91 L 741.25 487.21 L 748.50 487.50 L 748.50 509.00 C748.50,527.12 748.22,531.22 746.74,535.06 C744.52,540.81 738.78,546.46 733.12,548.46 ZM 298.19 535.50 L 293.21 548.50 L 285.69 548.79 C278.84,549.06 278.03,548.88 276.59,546.82 C275.71,545.57 275.00,544.09 274.99,543.53 C274.99,542.96 270.26,530.58 264.49,516.00 C258.72,501.42 254.00,488.92 254.00,488.21 C254.00,487.24 256.00,486.99 262.07,487.21 L 270.14 487.50 L 274.17 498.00 C276.39,503.77 278.79,510.30 279.50,512.50 C282.15,520.65 285.05,526.35 286.05,525.35 C286.59,524.81 288.85,519.45 291.08,513.44 C293.31,507.42 296.51,499.01 298.18,494.75 L 301.22 487.00 L 308.61 487.00 C313.86,487.00 316.00,487.36 315.98,488.25 C315.97,489.38 312.65,498.36 305.72,516.00 C304.31,519.58 300.92,528.35 298.19,535.50 ZM 867.00 547.57 C862.34,549.94 848.89,550.55 843.70,548.62 C834.94,545.36 828.34,538.96 825.44,530.93 C823.14,524.58 823.11,512.72 825.36,506.19 C827.93,498.77 835.71,490.94 843.01,488.44 C854.31,484.57 865.96,486.63 874.36,494.01 L 878.11 497.31 L 873.85 501.65 C871.50,504.04 868.99,506.00 868.27,506.00 C867.55,506.00 865.18,504.88 863.00,503.50 C857.05,499.74 850.21,499.99 845.48,504.15 C840.65,508.39 839.00,511.92 839.00,517.99 C839.00,531.03 849.46,538.99 860.30,534.19 C862.74,533.11 865.05,531.73 865.43,531.11 C866.76,528.96 869.63,530.05 873.80,534.29 L 878.01 538.59 L 874.25 542.18 C872.19,544.16 868.92,546.58 867.00,547.57 ZM 496.50 501.50 L 495.96 549.00 L 488.95 549.00 C484.25,549.00 481.78,548.59 481.47,547.75 C481.22,547.06 480.90,536.38 480.76,524.00 L 480.50 501.50 L 464.00 500.92 L 464.00 486.96 L 488.25 487.23 L 512.50 487.50 L 513.09 500.92 ZM 934.02 526.25 L 934.00 549.00 L 927.17 549.00 C923.41,549.00 920.03,548.70 919.67,548.33 C919.30,547.97 919.00,537.18 919.00,524.37 L 919.00 501.08 L 902.50 500.50 L 902.20 494.28 C901.93,488.51 902.07,488.02 904.20,487.50 C905.47,487.19 916.62,487.06 929.00,487.22 L 951.50 487.50 L 951.50 500.50 L 943.53 500.80 C938.71,500.98 935.26,501.57 934.80,502.30 C934.38,502.96 934.02,513.74 934.02,526.25 ZM 842.45 412.64 C846.36,414.41 854.37,413.55 858.67,410.90 C866.39,406.12 871.88,395.62 870.53,388.19 C868.91,379.22 860.70,372.98 852.33,374.33 C846.73,375.24 839.91,379.97 836.69,385.18 C830.17,395.72 832.81,408.28 842.45,412.64 ZM 561.40 412.14 C568.65,415.50 576.80,413.29 583.18,406.22 C590.18,398.48 591.65,388.89 587.02,381.27 C581.57,372.31 569.54,371.77 560.52,380.09 C549.14,390.58 549.58,406.65 561.40,412.14 ZM 595.50 487.50 L 595.50 548.50 L 588.24 548.79 C582.98,549.01 580.84,548.73 580.51,547.79 C580.26,547.08 580.15,533.22 580.28,517.00 L 580.50 487.50 ZM 781.50 534.65 C785.27,536.38 791.55,535.73 794.85,533.26 C799.70,529.64 801.38,526.32 801.82,519.52 C802.17,513.91 801.88,512.47 799.58,508.54 C796.45,503.20 792.71,501.00 786.80,501.00 C781.07,501.01 776.76,503.81 774.14,509.22 C769.52,518.76 772.99,530.75 781.50,534.65 ZM 649.06 531.43 C652.44,534.49 653.70,535.00 657.85,535.00 C666.83,535.00 673.45,527.65 673.30,517.86 C673.16,508.24 666.70,501.00 658.26,501.00 C650.16,501.00 644.09,507.02 643.23,515.91 C642.60,522.51 644.36,527.19 649.06,531.43 ZM 340.10 478.92 C337.02,481.36 335.25,482.00 331.55,482.00 C331.31,482.00 331.09,482.00 330.87,482.00 C329.11,482.01 328.06,482.01 327.78,481.55 C327.37,480.86 328.68,479.14 331.94,474.86 C332.20,474.51 332.48,474.14 332.78,473.75 L 337.14 468.00 L 350.50 468.03 L 355.75 474.44 C358.64,477.97 361.00,481.11 361.00,481.43 C361.00,481.74 358.85,482.00 356.23,482.00 C352.37,482.00 350.74,481.41 347.72,478.92 L 343.99 475.84 ZM 549.38 479.00 C547.39,481.20 545.48,482.99 545.13,482.97 C544.79,482.95 543.67,481.80 542.65,480.40 C540.92,478.03 540.91,477.75 542.48,476.02 C543.41,475.00 544.01,473.12 543.83,471.83 C543.56,469.90 542.81,469.44 539.51,469.18 C532.23,468.58 530.70,464.86 536.71,462.35 C538.98,461.40 541.94,461.00 544.31,461.32 C553.53,462.55 556.11,471.55 549.38,479.00 ZM 1041.22 479.47 C1038.84,481.48 1037.12,482.00 1032.95,482.00 L 1027.69 482.00 L 1029.56 479.75 C1036.80,471.07 1036.91,471.00 1044.28,471.00 L 1051.18 471.00 L 1055.55 475.75 C1057.95,478.36 1059.94,480.84 1059.96,481.25 C1059.98,481.66 1057.94,482.00 1055.43,482.00 C1052.09,482.00 1049.98,481.32 1047.55,479.47 L 1044.23 476.94 ZM 782.97 480.54 C782.17,481.50 779.85,482.00 776.16,482.00 L 770.57 482.00 L 776.00 476.50 C781.40,471.03 781.47,471.00 787.50,471.00 C793.43,471.00 793.69,471.11 798.29,475.78 C800.88,478.42 803.00,480.89 803.00,481.28 C803.00,481.68 800.81,482.00 798.13,482.00 C794.73,482.00 792.48,481.38 790.64,479.93 C787.86,477.74 785.11,477.96 782.97,480.54 ZM 1038.21 524.15 C1039.71,525.10 1045.52,525.23 1048.68,524.39 C1050.45,523.91 1050.71,523.39 1050.04,521.65 C1049.58,520.47 1048.62,517.47 1047.91,515.00 C1047.19,512.53 1045.93,509.43 1045.10,508.12 L 1043.59 505.73 L 1041.83 509.88 C1037.87,519.20 1036.84,523.28 1038.21,524.15 ZM 337.69 520.75 L 337.05 524.00 L 350.22 524.00 L 349.56 521.25 C349.20,519.74 347.72,515.45 346.28,511.72 L 343.66 504.93 L 340.99 511.22 C339.53,514.67 338.04,518.96 337.69,520.75 ZM 536.54 521.75 C535.89,523.93 536.07,524.00 542.88,524.00 L 549.89 524.00 L 548.04 518.75 C547.03,515.86 545.43,511.72 544.50,509.55 C542.94,505.92 542.71,505.76 541.69,507.55 C540.68,509.30 538.37,515.69 536.54,521.75 ZM 1070.59 468.38 C1065.68,472.58 1064.71,473.00 1060.03,473.00 L 1054.88 473.00 L 1063.47 462.00 L 1069.74 462.00 C1073.18,462.00 1076.00,462.40 1076.00,462.88 C1076.00,463.36 1073.57,465.84 1070.59,468.38 ZM 348.00 566.00 C345.21,568.79 341.56,568.53 339.07,565.37 C336.60,562.22 336.47,560.20 338.56,557.22 C340.52,554.42 345.97,554.20 348.35,556.83 C350.59,559.31 350.43,563.57 348.00,566.00 ZM 813.64 468.39 C809.78,471.66 807.90,472.52 803.45,473.01 C800.45,473.34 798.00,473.33 798.00,472.98 C798.00,472.25 804.98,463.84 806.48,462.77 C807.04,462.36 810.12,462.02 813.33,462.02 C820.28,462.00 820.32,462.74 813.64,468.39 Z" fill="rgb(18,57,101)"/>
<path d="M 759.47 324.75 L 758.91 328.00 L 639.20 327.88 C574.00,327.82 521.37,327.56 521.37,327.29 C521.37,327.29 521.37,327.29 521.38,327.28 C522.42,327.02 528.24,322.91 534.31,318.15 C540.38,313.39 547.70,307.92 550.57,306.00 C555.18,302.91 577.62,286.21 598.83,270.07 C602.87,267.01 610.34,261.56 615.44,257.96 C620.54,254.36 627.37,249.31 630.61,246.73 C637.00,241.63 655.83,227.41 659.33,225.03 C660.52,224.21 670.28,216.98 681.00,208.96 C717.52,181.62 731.49,171.36 741.50,164.51 C747.00,160.75 753.97,155.56 757.00,152.98 C760.03,150.39 766.18,145.73 770.67,142.61 C779.26,136.65 785.44,130.53 784.46,128.94 C784.14,128.42 785.47,128.00 787.44,128.00 C790.71,128.00 791.00,128.24 791.00,130.94 C791.00,132.56 789.46,143.02 787.58,154.19 C785.70,165.36 783.21,180.57 782.04,188.00 C780.88,195.43 779.53,203.52 779.05,206.00 C778.56,208.48 777.64,213.88 777.00,218.00 C776.36,222.12 774.80,231.57 773.52,239.00 C772.25,246.43 770.70,255.88 770.07,260.00 C769.11,266.37 761.18,314.75 759.47,324.75 ZM 803.75 287.92 C805.02,288.66 802.42,288.95 794.37,288.97 C781.16,289.01 780.51,288.61 781.90,281.38 C782.42,278.69 783.33,273.69 783.92,270.25 C784.51,266.81 785.45,261.41 786.00,258.25 C786.54,255.09 788.85,241.25 791.12,227.50 C793.39,213.75 795.58,200.70 795.99,198.50 C796.71,194.67 798.29,186.02 799.81,177.50 L 800.53 173.50 L 813.02 173.25 C823.65,173.03 825.13,173.18 823.02,174.27 C821.02,175.30 820.12,177.17 818.37,184.02 C817.18,188.68 815.91,195.88 815.54,200.00 C815.18,204.12 813.81,213.12 812.50,220.00 C811.19,226.88 809.36,237.68 808.43,244.00 C807.51,250.32 805.68,260.55 804.38,266.73 C801.48,280.43 801.30,286.49 803.75,287.92 ZM 773.17 392.25 C772.68,393.34 764.00,393.17 764.00,392.07 C764.00,391.32 769.21,360.09 771.44,347.50 C771.73,345.85 772.88,338.65 774.00,331.50 C775.11,324.35 776.25,317.49 776.53,316.25 C777.02,314.08 777.43,314.00 788.27,314.03 C796.39,314.05 799.02,314.34 797.75,315.08 C796.79,315.64 796.00,317.09 796.00,318.30 C796.00,320.43 793.44,335.62 788.53,362.65 C785.79,377.73 782.85,384.52 777.26,388.69 C775.19,390.23 773.35,391.84 773.17,392.25 ZM 1065.47 584.75 C1065.83,587.36 1065.67,590.63 1065.12,592.00 C1064.31,594.05 1064.12,593.31 1064.06,587.83 C1064.02,583.49 1063.56,580.99 1062.75,580.66 C1061.97,580.35 1062.12,580.13 1063.16,580.08 C1064.39,580.02 1064.98,581.21 1065.47,584.75 ZM 569.79 589.25 C570.59,590.22 569.62,590.50 565.39,590.50 C560.80,590.50 560.23,590.31 561.67,589.25 C562.61,588.56 564.59,588.00 566.07,588.00 C567.55,588.00 569.22,588.56 569.79,589.25 ZM 302.00 616.06 C302.00,617.60 301.30,618.00 298.61,618.00 C296.44,618.00 295.00,617.43 294.61,616.42 C293.62,613.85 293.91,613.49 295.36,615.47 C296.91,617.60 300.00,616.94 300.00,614.47 C300.00,613.60 300.45,613.16 301.00,613.50 C301.55,613.84 302.00,614.99 302.00,616.06 ZM 374.00 583.00 C374.00,585.20 373.53,586.00 372.25,585.98 C370.96,585.97 370.84,585.75 371.78,585.15 C374.26,583.58 371.97,581.12 367.66,580.73 C363.79,580.38 363.86,580.34 368.75,580.17 C373.96,580.00 374.00,580.03 374.00,583.00 ZM 457.92 614.75 C458.00,617.81 457.80,618.00 454.50,618.00 C452.58,618.00 451.00,617.61 451.00,617.14 C451.00,616.66 452.07,616.48 453.39,616.73 C455.29,617.10 455.98,616.62 456.81,614.34 L 457.84 611.50 ZM 364.00 616.49 C364.00,617.55 362.95,618.00 360.50,618.00 C357.56,618.00 357.00,617.65 357.00,615.81 C357.00,613.67 357.03,613.66 358.44,615.56 C359.67,617.22 360.18,617.32 361.94,616.24 C363.67,615.19 364.00,615.23 364.00,616.49 ZM 595.16 604.12 C596.04,604.68 595.30,604.97 593.00,604.97 C590.70,604.97 589.96,604.68 590.84,604.12 C591.57,603.66 592.13,602.88 592.09,602.39 C592.04,601.90 592.45,601.50 593.00,601.50 C593.55,601.50 593.96,601.90 593.91,602.39 C593.87,602.88 594.43,603.66 595.16,604.12 ZM 349.01 584.51 C350.02,585.73 349.95,586.00 348.62,586.00 C346.82,586.00 346.31,581.55 347.99,580.51 C348.56,580.16 348.72,580.56 348.38,581.46 C348.05,582.32 348.33,583.69 349.01,584.51 Z" fill="rgb(197,61,12)"/>
<path d="M 803.75 287.92 C801.30,286.49 801.48,280.43 804.38,266.73 C805.68,260.55 807.51,250.32 808.43,244.00 C809.36,237.68 811.19,226.88 812.50,220.00 C813.81,213.12 815.18,204.12 815.54,200.00 C815.91,195.88 817.18,188.68 818.37,184.02 C820.12,177.17 821.02,175.30 823.02,174.27 C823.69,173.92 824.00,173.67 823.77,173.50 L 910.50 173.50 L 915.07 176.19 C920.17,179.18 922.28,182.00 930.27,196.50 C945.82,224.72 962.04,254.74 967.20,264.90 C972.76,275.84 973.00,276.62 973.00,283.93 C973.00,288.14 971.22,302.26 969.01,315.52 C966.81,328.71 965.01,340.22 965.01,341.09 C965.00,342.07 966.47,343.12 968.84,343.83 C971.58,344.66 973.21,345.97 974.53,348.43 C976.36,351.82 976.35,352.09 973.68,367.69 C970.82,384.45 969.85,386.78 964.01,390.75 C960.78,392.95 960.07,393.00 933.35,393.00 L 906.00 393.00 L 906.00 384.66 C906.00,362.28 891.66,344.03 870.12,339.00 C862.90,337.31 848.13,338.23 840.83,340.82 C823.74,346.89 805.96,365.46 800.44,383.00 C799.49,386.02 798.34,389.51 797.88,390.75 C797.06,392.96 796.74,393.00 780.52,393.00 C777.07,393.00 773.95,392.95 771.38,392.86 C772.34,392.74 773.04,392.54 773.17,392.25 C773.35,391.84 775.19,390.23 777.26,388.69 C782.85,384.52 785.79,377.73 788.53,362.65 C793.44,335.62 796.00,320.43 796.00,318.30 C796.00,317.09 796.79,315.64 797.75,315.08 C799.02,314.34 796.39,314.05 788.27,314.03 C777.72,314.00 777.05,314.07 776.57,316.08 L 777.06 313.91 L 856.13 314.50 L 855.55 317.00 C855.22,318.38 854.67,321.27 854.32,323.44 L 853.69 327.37 L 858.44 324.59 C861.06,323.05 868.07,318.58 874.03,314.65 C879.98,310.72 886.90,306.28 889.41,304.79 C892.20,303.12 893.75,301.57 893.40,300.79 C892.86,299.54 868.08,279.74 864.71,277.86 C863.38,277.11 862.94,277.48 862.48,279.72 C862.16,281.25 861.57,283.85 861.16,285.50 L 860.43 288.50 L 821.84 288.76 C813.16,288.82 806.33,288.85 800.97,288.84 C803.78,288.68 804.56,288.39 803.75,287.92 ZM 790.63 128.65 C790.21,128.08 789.32,128.00 787.44,128.00 C785.47,128.00 784.14,128.42 784.46,128.94 C785.44,130.53 779.26,136.65 770.67,142.61 C766.18,145.73 760.03,150.39 757.00,152.98 C753.97,155.56 747.00,160.75 741.50,164.51 C731.49,171.36 717.52,181.62 681.00,208.96 C670.28,216.98 660.52,224.21 659.33,225.03 C655.83,227.41 637.00,241.63 630.61,246.73 C627.37,249.31 620.54,254.36 615.44,257.96 C610.34,261.56 602.87,267.01 598.83,270.07 C577.62,286.21 555.18,302.91 550.57,306.00 C547.70,307.92 540.38,313.39 534.31,318.15 C528.24,322.91 522.42,327.02 521.38,327.28 C521.37,327.29 521.37,327.29 521.37,327.29 C521.37,327.56 574.00,327.82 639.20,327.88 L 758.91 328.00 L 487.00 328.00 L 486.82 324.75 C486.72,322.96 486.65,320.83 486.66,320.00 C486.67,318.56 490.58,294.66 491.48,290.50 C491.90,288.58 492.74,288.50 513.21,288.47 C531.33,288.45 534.97,288.20 537.66,286.75 C541.46,284.70 544.65,277.53 543.40,273.85 C542.96,272.56 542.58,271.10 542.55,270.60 C542.52,270.11 541.60,269.35 540.50,268.92 C539.40,268.49 515.05,268.11 486.38,268.07 C435.23,268.00 434.22,267.96 431.63,265.93 C429.43,264.20 429.01,263.09 429.07,259.18 C429.14,255.07 429.58,254.13 432.75,251.50 L 436.35 248.50 L 520.12 248.80 C525.56,248.82 530.66,248.84 535.44,248.86 C599.11,249.11 607.14,249.14 610.46,245.20 C611.19,244.34 611.69,243.28 612.51,241.99 C615.72,236.89 615.65,234.91 612.10,231.11 L 609.20 228.00 L 495.85 228.00 L 492.92 225.08 C490.85,223.01 490.00,221.18 490.02,218.83 C490.03,214.98 490.47,214.22 494.38,211.22 C497.26,209.00 497.37,209.00 541.63,209.00 C570.54,209.00 586.00,208.65 586.00,208.00 C586.00,207.45 586.63,207.00 587.40,207.00 C588.16,207.00 590.19,205.41 591.90,203.47 C595.80,199.02 596.05,194.33 592.59,190.31 L 590.17 187.50 L 535.84 187.26 C505.95,187.13 479.59,187.02 477.25,187.01 C471.62,187.00 469.00,184.43 469.00,178.93 C469.00,176.70 469.46,174.00 470.03,172.94 C471.26,170.65 476.65,167.67 478.03,168.52 C478.56,168.85 479.00,168.64 479.00,168.06 C479.00,167.33 491.47,167.00 518.86,167.00 L 558.72 167.00 L 562.42 164.07 C564.45,162.45 566.14,160.77 566.18,160.32 C566.22,159.87 566.46,158.96 566.72,158.29 C566.97,157.63 566.65,155.48 566.01,153.52 C564.01,147.48 561.94,147.00 537.75,147.00 L 516.41 147.00 L 516.17 143.51 C515.74,137.05 521.37,130.13 528.80,127.98 C531.36,127.24 572.13,127.01 661.50,127.21 L 790.50 127.50 ZM 896.01 264.75 C896.01,265.16 903.89,265.62 913.51,265.77 C924.92,265.95 931.00,265.69 931.00,265.02 C931.00,264.46 932.80,264.00 935.00,264.00 C937.20,264.00 939.00,263.69 939.00,263.32 C939.00,262.75 926.85,239.41 909.08,205.85 C907.15,202.20 904.65,198.62 903.53,197.90 C900.67,196.07 838.13,196.53 836.21,198.40 C835.50,199.09 833.79,206.59 832.42,215.08 C831.04,223.56 828.77,237.38 827.37,245.79 C825.36,257.88 825.08,261.39 826.04,262.54 C827.05,263.77 832.74,264.00 861.62,264.00 C880.53,264.00 896.00,264.34 896.01,264.75 ZM 916.68 615.41 C914.33,617.15 912.11,617.56 903.43,617.84 L 893.00 618.18 L 893.00 610.00 C893.00,602.65 892.79,601.76 891.00,601.29 C889.61,600.93 889.00,599.93 889.00,598.00 C889.00,596.07 889.61,595.07 891.00,594.71 C892.76,594.25 893.00,593.35 893.00,587.11 C893.00,580.45 893.14,580.00 895.43,579.43 C896.77,579.09 900.71,579.06 904.18,579.37 C907.66,579.67 911.29,579.97 912.25,580.02 C913.21,580.08 914.00,580.57 914.00,581.12 C914.00,581.67 914.41,581.87 914.91,581.56 C916.08,580.83 920.90,586.55 922.65,590.72 C926.09,598.91 923.28,610.50 916.68,615.41 ZM 449.80 186.11 C447.60,187.29 424.90,187.97 414.00,187.19 C405.86,186.61 402.50,180.04 406.70,172.94 C409.45,168.28 411.35,167.85 431.75,167.28 C443.02,166.97 447.00,167.17 447.00,168.04 C447.00,168.68 447.67,168.95 448.50,168.64 C449.33,168.32 450.00,168.53 450.00,169.09 C450.00,169.66 450.43,169.85 450.95,169.53 C452.35,168.66 454.00,172.36 454.00,176.37 C454.00,181.21 452.51,184.65 449.80,186.11 ZM 830.49 626.83 C828.37,628.50 826.43,628.98 822.12,628.93 C813.42,628.83 810.41,626.78 812.14,622.15 C812.79,620.38 813.45,619.99 814.76,620.57 C815.72,621.00 818.55,621.54 821.06,621.76 C825.90,622.19 827.17,621.40 828.48,617.15 C829.13,615.02 828.98,614.88 826.85,615.65 C825.56,616.11 822.76,616.47 820.62,616.44 C817.46,616.40 816.12,615.71 813.33,612.67 C811.46,610.62 810.19,608.50 810.52,607.97 C810.85,607.44 810.64,607.00 810.06,607.00 C808.49,607.00 808.77,599.34 810.46,596.07 C812.80,591.55 817.69,588.00 821.58,588.00 C823.52,588.00 825.00,588.51 825.00,589.17 C825.00,589.81 825.30,590.04 825.66,589.68 C826.02,589.31 826.92,589.52 827.66,590.13 C828.65,590.95 829.00,590.95 829.00,590.12 C829.00,589.51 830.58,589.00 832.50,589.00 L 836.00 589.00 L 836.00 603.53 C836.00,619.51 835.13,623.18 830.49,626.83 ZM 1012.50 625.70 C1009.50,628.70 1008.68,628.99 1003.35,628.94 C994.46,628.84 991.59,627.28 992.68,623.13 C993.20,621.13 993.68,620.98 997.62,621.57 C1000.02,621.93 1003.56,621.93 1005.49,621.57 C1008.55,620.99 1009.00,620.53 1009.00,618.01 C1009.00,615.20 1008.90,615.14 1005.91,616.18 C1001.27,617.80 995.60,615.77 992.67,611.47 C990.67,608.52 990.38,607.08 990.74,601.79 C991.24,594.36 992.11,592.51 996.31,589.95 C1000.24,587.56 1003.80,587.47 1006.96,589.69 C1008.67,590.89 1009.49,591.03 1009.77,590.19 C1010.20,588.91 1015.95,588.51 1016.08,589.75 C1016.72,595.71 1016.95,612.77 1016.46,616.95 C1015.94,621.30 1015.14,623.06 1012.50,625.70 ZM 521.00 607.74 C520.53,616.92 520.37,617.52 518.25,617.82 C516.59,618.06 515.74,617.45 515.00,615.50 C513.91,612.62 513.62,587.15 514.62,582.12 C516.02,575.14 521.30,579.29 531.38,595.30 C533.39,598.49 535.48,600.82 536.02,600.49 C536.56,600.16 537.00,595.42 537.00,589.96 C537.00,580.27 537.06,580.02 539.44,579.42 C540.79,579.09 542.36,579.11 542.94,579.46 C543.63,579.89 544.00,586.85 544.00,599.12 L 544.00 618.13 L 540.79 617.81 C537.98,617.54 536.67,616.23 530.47,607.50 C526.56,602.00 522.94,597.61 522.43,597.74 C521.92,597.87 521.28,602.37 521.00,607.74 ZM 276.27 614.00 C274.97,617.31 274.22,618.00 271.96,618.00 C270.20,618.00 269.07,617.38 268.78,616.25 C268.39,614.77 275.67,593.04 279.24,585.00 C279.85,583.62 280.27,582.16 280.17,581.75 C280.08,581.34 280.48,581.00 281.06,581.00 C281.64,581.00 281.84,580.55 281.50,580.00 C280.59,578.52 286.91,578.77 288.41,580.27 C289.11,580.97 291.18,586.03 293.00,591.52 C294.83,597.01 297.60,604.60 299.16,608.39 C300.09,610.64 300.78,612.37 301.23,613.69 C301.16,613.61 301.08,613.55 301.00,613.50 C300.45,613.16 300.00,613.60 300.00,614.47 C300.00,616.94 296.91,617.60 295.36,615.47 C293.91,613.49 293.62,613.85 294.61,616.42 C294.99,617.42 296.41,617.99 298.54,618.00 L 298.42 618.00 C295.17,618.00 294.69,617.63 293.27,614.00 L 291.70 610.00 L 277.84 610.00 ZM 394.74 616.43 C393.51,617.24 390.70,618.17 388.50,618.50 C380.82,619.64 374.01,612.69 374.00,603.70 C373.99,587.85 391.84,582.27 398.75,595.96 C399.99,598.42 401.00,601.92 401.00,603.75 C401.00,607.86 397.73,614.47 394.74,616.43 ZM 768.65 616.49 C765.93,618.27 760.30,619.25 758.00,618.34 C755.63,617.41 750.96,612.76 749.41,609.80 C747.42,605.99 747.66,600.59 750.01,595.97 C752.17,591.75 756.24,588.42 757.96,589.47 C758.53,589.83 759.00,589.59 759.00,588.95 C759.00,587.44 765.60,588.57 768.80,590.63 C777.13,595.99 777.04,610.99 768.65,616.49 ZM 1065.47 584.75 C1064.98,581.21 1064.39,580.02 1063.16,580.08 C1062.12,580.13 1061.97,580.35 1062.75,580.66 C1063.56,580.99 1064.02,583.49 1064.06,587.83 C1064.12,593.31 1064.31,594.05 1065.12,592.00 C1065.37,591.37 1065.54,590.35 1065.62,589.17 C1065.67,591.67 1065.72,594.80 1065.77,598.75 L 1066.04 618.00 L 1059.08 618.00 L 1058.79 610.25 L 1058.50 602.50 L 1044.50 602.50 L 1044.21 610.25 L 1043.92 618.00 L 1037.49 618.00 L 1037.28 598.50 C1037.07,579.98 1037.16,579.00 1038.95,579.00 C1043.41,579.00 1044.00,579.93 1044.00,586.95 C1044.00,593.19 1044.18,593.76 1046.55,594.84 C1049.72,596.28 1054.51,596.33 1057.09,594.95 C1058.83,594.02 1058.97,593.21 1058.41,587.67 C1057.70,580.74 1058.92,578.57 1063.19,579.17 C1064.70,579.39 1065.22,579.46 1065.48,584.85 ZM 472.65 226.07 C470.04,227.66 467.58,227.99 458.31,228.00 C448.13,228.00 446.88,227.80 444.52,225.75 C441.28,222.94 440.11,217.03 442.35,214.79 C443.21,213.94 443.66,213.00 443.37,212.70 C443.07,212.40 443.88,211.56 445.16,210.83 C447.77,209.35 473.01,207.97 473.00,209.31 C473.00,209.75 473.40,209.87 473.89,209.57 C475.07,208.84 476.69,210.90 477.51,214.20 C478.54,218.30 476.26,223.87 472.65,226.07 ZM 411.02 266.49 C408.99,267.54 405.07,268.00 398.20,268.00 C389.78,268.00 387.97,267.71 386.02,266.02 C382.61,263.06 382.19,256.96 385.17,253.47 C387.14,251.16 388.19,249.84 389.56,249.13 C391.38,248.18 393.76,248.32 399.59,248.65 C399.97,248.67 400.36,248.69 400.76,248.71 C414.08,249.45 416.00,250.46 416.00,256.68 C416.00,262.17 414.80,264.54 411.02,266.49 ZM 422.25 618.03 C419.64,617.99 415.70,618.20 413.50,618.50 C408.82,619.12 406.57,618.00 404.50,614.00 C402.77,610.65 402.51,606.00 404.06,606.00 C404.64,606.00 404.86,605.58 404.54,605.07 C403.41,603.24 408.41,601.00 413.61,601.00 C417.89,601.00 418.85,600.67 419.28,599.04 C420.30,595.12 415.78,594.12 408.09,596.55 C406.38,597.10 405.89,596.98 406.40,596.16 C406.80,595.52 406.64,595.00 406.06,595.00 C405.48,595.00 405.00,594.08 405.00,592.95 C405.00,588.88 417.09,586.23 420.43,589.57 C421.29,590.44 422.00,590.85 422.00,590.50 C422.00,589.50 424.55,592.30 425.84,594.70 C426.51,595.95 427.00,601.35 427.00,607.48 L 427.00 618.10 ZM 648.00 609.22 L 648.00 618.00 L 640.96 618.00 L 641.50 577.50 L 648.00 576.87 L 648.00 589.77 L 654.25 589.28 C660.05,588.82 660.68,588.98 663.00,591.47 C665.33,593.97 665.52,594.98 665.83,606.08 L 666.17 618.00 L 659.00 618.00 L 659.00 608.20 C659.00,597.54 658.35,596.00 653.86,596.00 C649.39,596.00 648.00,599.14 648.00,609.22 ZM 709.07 616.84 C705.04,619.11 700.11,619.52 696.15,617.93 C692.33,616.40 687.93,612.92 688.55,611.92 C688.86,611.42 688.57,611.00 687.89,611.00 C687.22,611.00 686.95,610.72 687.29,610.38 C687.63,610.04 687.28,609.14 686.52,608.38 C684.57,606.42 683.42,596.15 684.90,593.79 C685.54,592.76 685.80,591.49 685.47,590.96 C685.15,590.43 685.39,590.00 686.00,590.00 C686.61,590.00 686.87,589.60 686.56,589.10 C686.26,588.61 686.71,587.94 687.57,587.61 C688.43,587.28 688.89,586.63 688.59,586.15 C687.87,584.98 691.85,581.38 695.32,580.07 C701.47,577.73 710.74,579.87 713.41,584.24 C714.24,585.59 714.00,586.44 712.33,588.11 C710.32,590.12 710.06,590.15 707.87,588.62 C705.25,586.79 699.82,586.49 696.94,588.03 C690.40,591.53 690.48,606.13 697.06,609.53 C700.66,611.40 703.35,611.39 706.99,609.51 C710.10,607.90 712.52,608.30 713.39,610.58 C714.28,612.90 713.14,614.55 709.07,616.84 ZM 726.00 608.93 L 726.00 618.00 L 722.97 618.00 C721.30,618.00 719.72,617.42 719.45,616.72 C719.18,616.01 719.08,606.90 719.23,596.47 L 719.50 577.50 L 722.50 577.50 C725.49,577.50 725.50,577.53 725.80,583.84 C726.06,589.36 726.32,590.08 727.80,589.46 C731.69,587.82 734.48,587.80 737.44,589.40 C742.56,592.16 743.39,594.41 743.82,606.75 L 744.22 618.00 L 737.00 618.00 L 737.00 608.20 C737.00,597.31 736.39,596.00 731.34,596.00 C726.86,596.00 726.00,598.09 726.00,608.93 ZM 595.80 616.80 C595.14,617.46 592.42,618.00 589.75,618.00 C585.94,618.00 584.39,617.48 582.45,615.55 C579.84,612.93 579.21,608.34 581.01,604.98 C582.17,602.82 587.74,601.01 593.25,601.01 C597.70,601.00 598.31,598.90 594.57,596.45 C592.77,595.28 590.96,595.03 587.67,595.53 C583.61,596.14 583.13,595.99 582.48,593.92 C581.44,590.65 584.27,589.00 590.97,589.00 C601.13,589.00 604.00,593.29 604.00,608.47 L 604.00 618.00 L 600.50 618.00 C598.44,618.00 597.00,617.50 597.00,616.80 C597.00,615.87 596.73,615.87 595.80,616.80 ZM 1092.84 615.67 C1091.05,617.57 1089.62,618.00 1085.05,618.00 C1078.44,618.00 1075.78,616.45 1072.99,610.97 C1069.21,603.58 1070.76,595.98 1077.11,590.72 C1085.24,583.98 1096.00,590.76 1096.00,602.62 L 1096.00 606.00 L 1087.00 606.00 C1079.61,606.00 1078.00,606.27 1078.00,607.52 C1078.00,608.36 1079.12,609.56 1080.50,610.18 C1081.88,610.81 1083.00,611.70 1083.00,612.16 C1083.00,612.62 1084.12,613.00 1085.50,613.00 C1086.88,613.00 1088.00,612.60 1088.00,612.11 C1088.00,610.29 1091.34,609.99 1093.16,611.64 C1094.98,613.29 1094.98,613.40 1092.84,615.67 ZM 569.79 589.25 C569.48,588.87 568.84,588.54 568.08,588.31 C573.11,589.25 575.16,595.08 575.35,607.45 L 575.50 617.50 L 569.00 618.13 L 569.00 608.72 C569.00,598.36 567.85,596.00 562.79,596.00 C558.68,596.00 557.62,598.37 557.17,608.60 L 556.76 618.00 L 551.00 618.00 L 551.00 578.00 L 554.00 578.00 C555.65,578.00 557.04,578.34 557.09,578.75 C557.13,579.16 557.30,581.66 557.46,584.29 C557.62,586.93 557.92,589.26 558.13,589.47 C558.34,589.67 560.28,589.37 562.49,588.79 C562.17,588.93 561.89,589.09 561.67,589.25 C560.23,590.31 560.80,590.50 565.39,590.50 C569.62,590.50 570.59,590.22 569.79,589.25 ZM 312.79 608.53 L 312.50 617.50 L 305.06 618.12 L 305.61 604.81 C305.92,597.49 306.36,590.88 306.60,590.12 C306.91,589.15 308.05,588.91 310.48,589.30 C312.37,589.61 315.55,589.41 317.55,588.86 C322.09,587.61 327.64,589.91 329.05,593.64 C329.57,595.01 330.00,601.05 330.00,607.07 L 330.00 618.00 L 323.00 618.00 L 323.00 608.20 C323.00,597.87 322.30,596.00 318.45,596.00 C314.41,596.00 313.11,598.88 312.79,608.53 ZM 617.00 608.83 L 617.00 618.00 L 610.00 618.00 L 610.00 589.14 L 613.50 589.32 C615.42,589.42 616.99,589.89 617.00,590.37 C617.00,590.85 617.56,590.78 618.25,590.22 C618.94,589.65 621.96,589.26 624.96,589.34 C629.98,589.49 630.61,589.77 632.71,592.90 C634.75,595.92 635.00,597.50 635.00,607.15 L 635.00 618.00 L 628.00 618.00 L 628.00 608.93 C628.00,598.42 627.09,596.00 623.12,596.00 C618.21,596.00 617.00,598.54 617.00,608.83 ZM 949.25 617.92 C946.64,617.82 943.15,618.02 941.50,618.37 C939.70,618.75 937.19,618.41 935.21,617.53 C930.27,615.33 928.81,610.83 929.17,598.97 L 929.47 589.19 L 932.49 589.35 L 935.50 589.50 L 935.79 598.48 C936.04,606.03 936.43,607.82 938.22,609.73 C940.98,612.67 942.39,612.59 944.93,609.37 C946.67,607.15 947.00,605.32 947.00,597.87 L 947.00 589.00 L 954.00 589.00 L 954.00 618.10 ZM 1108.79 608.05 C1108.51,617.30 1108.45,617.51 1105.99,617.79 C1101.67,618.30 1101.00,616.51 1101.01,604.55 C1101.03,590.49 1101.42,589.00 1105.06,589.00 C1106.61,589.00 1108.16,589.45 1108.51,590.01 C1108.90,590.65 1109.92,590.47 1111.29,589.51 C1114.00,587.61 1116.98,587.59 1120.58,589.46 C1125.11,591.81 1125.93,594.43 1125.96,606.75 L 1126.00 618.00 L 1120.00 618.00 L 1119.99 609.75 C1119.97,599.80 1118.65,596.62 1114.39,596.20 C1112.69,596.03 1110.83,596.50 1110.20,597.25 C1109.59,598.00 1108.95,602.86 1108.79,608.05 ZM 785.80 616.80 C785.14,617.46 783.57,618.00 782.30,618.00 C780.01,618.00 780.00,617.96 780.00,603.50 L 780.00 589.00 L 783.50 589.00 C785.42,589.00 787.00,589.51 787.00,590.12 C787.00,590.91 787.43,590.89 788.46,590.04 C789.26,589.37 790.34,589.09 790.87,589.42 C791.40,589.75 792.01,589.46 792.24,588.79 C792.54,587.87 793.64,587.81 796.55,588.53 C799.59,589.29 800.94,590.38 802.71,593.50 C804.65,596.93 804.97,598.97 804.98,607.81 L 805.00 618.13 L 798.50 617.50 L 798.21 608.05 C798.05,602.86 797.43,598.02 796.84,597.30 C795.35,595.51 790.48,595.67 788.57,597.57 C787.40,598.75 787.00,601.22 787.00,607.37 C787.00,612.44 786.54,616.06 785.80,616.80 ZM 451.00 617.14 L 451.00 608.50 C451.00,600.33 450.72,598.72 449.00,597.00 C446.50,594.50 445.90,594.51 442.63,597.07 C440.12,599.05 440.00,599.58 440.00,608.57 L 440.00 618.00 L 437.11 618.00 C434.93,618.00 434.09,617.44 433.69,615.75 C433.04,612.93 433.32,591.35 434.02,590.65 C434.30,590.36 436.89,589.99 439.77,589.81 C442.65,589.64 445.00,589.16 445.00,588.75 C445.00,588.34 446.39,588.00 448.10,588.00 C450.29,588.00 452.20,589.00 454.60,591.40 L 458.00 594.80 L 458.00 618.00 L 451.00 618.00 L 451.00 617.14 ZM 967.00 609.22 L 967.00 618.00 L 964.09 618.00 C961.47,618.00 961.11,617.60 960.49,613.96 C960.12,611.75 960.13,605.21 960.53,599.44 L 961.24 588.95 L 965.87 589.04 C968.42,589.09 972.19,588.82 974.25,588.45 C976.83,587.99 978.00,588.15 978.00,588.95 C978.00,589.59 978.38,589.88 978.85,589.59 C979.32,589.30 980.79,590.21 982.10,591.61 C984.31,593.95 984.53,595.11 984.83,606.08 L 985.17 618.00 L 982.22 618.00 C979.42,618.00 979.25,617.75 978.65,612.75 C978.30,609.86 978.01,605.45 978.01,602.95 C978.00,597.72 976.73,596.00 972.86,596.00 C968.39,596.00 967.00,599.14 967.00,609.22 ZM 349.01 584.51 C348.33,583.69 348.05,582.32 348.38,581.46 C348.72,580.56 348.56,580.16 347.99,580.51 C347.80,580.62 347.64,580.79 347.50,580.98 L 347.50 579.50 L 373.50 579.50 L 373.50 580.52 C372.90,580.04 371.60,580.08 368.75,580.17 C363.86,580.34 363.79,580.38 367.66,580.73 C371.97,581.12 374.26,583.58 371.78,585.15 C370.84,585.75 370.96,585.97 372.25,585.98 C372.61,585.99 372.91,585.93 373.15,585.79 C372.68,586.56 371.58,586.71 369.00,587.00 L 364.50 587.50 L 364.22 602.75 L 363.98 616.08 C363.90,615.23 363.45,615.32 361.94,616.24 C360.18,617.32 359.67,617.22 358.44,615.56 C357.03,613.66 357.00,613.67 357.00,615.81 C357.00,617.64 357.56,618.00 360.47,618.00 L 357.00 618.00 L 356.99 606.25 C356.98,599.79 356.70,592.84 356.37,590.80 C355.79,587.30 355.54,587.09 351.63,586.80 C349.08,586.62 348.11,586.50 347.73,585.56 C347.98,585.84 348.28,586.00 348.62,586.00 C349.95,586.00 350.02,585.73 349.01,584.51 ZM 901.25 610.39 C901.94,610.70 904.52,610.78 906.99,610.57 C913.27,610.04 917.00,605.62 917.00,598.69 C917.00,594.46 916.54,593.34 913.60,590.40 C910.62,587.42 909.57,587.00 905.10,587.00 L 900.00 587.00 L 900.00 590.92 C900.00,594.44 900.30,594.91 902.92,595.48 C904.52,595.83 906.12,596.87 906.47,597.78 C907.20,599.67 904.62,602.00 901.81,602.00 C900.37,602.00 900.00,602.80 900.00,605.92 C900.00,608.09 900.56,610.08 901.25,610.39 ZM 756.88 608.88 C761.53,613.53 768.00,610.50 768.00,603.67 C768.00,598.65 765.74,596.00 761.47,596.00 C757.53,596.00 755.98,597.72 755.29,602.84 C754.88,605.96 755.21,607.21 756.88,608.88 ZM 382.56 608.78 C384.44,611.46 388.63,611.66 391.55,609.22 C393.20,607.83 393.52,606.63 393.19,603.00 C392.96,600.53 392.32,597.94 391.77,597.25 C390.32,595.46 384.98,595.71 382.83,597.65 C380.55,599.71 380.41,605.71 382.56,608.78 ZM 1000.87 609.18 C1004.12,610.81 1004.31,610.79 1006.59,608.68 C1011.94,603.72 1009.84,595.67 1003.21,595.67 C998.43,595.67 996.85,597.57 997.20,602.91 C997.47,607.00 997.87,607.68 1000.87,609.18 ZM 820.32 608.98 C824.96,610.84 829.00,607.82 829.00,602.50 C829.00,598.04 826.91,595.67 822.99,595.67 C815.51,595.67 813.40,606.23 820.32,608.98 ZM 497.00 599.93 L 497.00 605.00 L 485.43 605.00 C474.00,605.00 473.86,604.97 474.18,602.75 C474.49,600.59 474.94,600.49 485.75,600.22 ZM 874.82 602.75 C875.13,604.96 874.95,605.00 864.74,605.00 C859.01,605.00 854.03,604.70 853.67,604.33 C853.30,603.97 853.00,602.83 853.00,601.80 C853.00,600.07 853.82,599.95 863.75,600.22 C874.04,600.49 874.51,600.60 874.82,602.75 ZM 280.25 601.75 C279.92,602.64 281.15,603.00 284.51,603.00 C289.16,603.00 289.22,602.96 288.55,600.25 C288.18,598.74 287.80,596.71 287.72,595.75 C287.64,594.79 287.19,594.00 286.73,594.00 C286.26,594.00 286.13,593.60 286.43,593.11 C286.73,592.63 286.35,591.71 285.58,591.07 C284.44,590.12 283.87,590.88 282.45,595.21 C281.49,598.12 280.50,601.06 280.25,601.75 ZM 1077.00 599.61 C1077.00,600.65 1078.63,601.00 1083.50,601.00 C1087.80,601.00 1090.00,600.60 1090.00,599.83 C1090.00,597.75 1086.76,595.00 1084.31,595.00 C1081.36,595.00 1077.00,597.75 1077.00,599.61 ZM 587.93 611.42 C589.72,613.57 592.59,613.41 595.00,611.00 C598.40,607.60 597.61,605.84 592.85,606.19 C588.03,606.55 585.83,608.89 587.93,611.42 ZM 945.92 581.59 C942.69,584.92 939.00,586.13 939.00,583.87 C939.00,581.11 943.24,576.00 945.52,576.00 C949.32,576.00 949.46,577.93 945.92,581.59 ZM 411.57 611.43 C412.44,612.29 413.79,613.00 414.57,613.00 C416.50,613.00 420.22,609.17 419.74,607.69 C419.20,606.05 413.19,605.60 411.43,607.05 C409.60,608.58 409.63,609.48 411.57,611.43 ZM 418.00 583.40 C418.00,583.73 416.99,584.00 415.75,583.99 C412.87,583.99 406.47,577.14 408.59,576.33 C411.16,575.34 414.49,576.87 416.26,579.86 C417.22,581.48 418.00,583.08 418.00,583.40 ZM 765.46 581.90 C759.74,586.93 756.96,585.67 761.07,579.90 C762.36,578.10 764.03,577.00 765.51,577.00 C769.28,577.00 769.27,578.56 765.46,581.90 ZM 1086.50 626.50 C1086.50,628.76 1086.00,629.57 1084.46,629.79 C1081.67,630.19 1081.08,629.35 1081.93,626.19 C1082.98,622.24 1086.50,622.48 1086.50,626.50 ZM 457.92 614.75 L 457.84 611.50 L 456.81 614.34 C455.98,616.62 455.29,617.10 453.39,616.73 C452.07,616.48 451.00,616.66 451.00,617.14 C451.00,617.61 452.58,618.00 454.50,618.00 C457.80,618.00 458.00,617.81 457.92,614.75 ZM 595.16 604.12 C594.43,603.66 593.87,602.88 593.91,602.39 C593.96,601.90 593.55,601.50 593.00,601.50 C592.45,601.50 592.04,601.90 592.09,602.39 C592.13,602.88 591.57,603.66 590.84,604.12 C589.96,604.68 590.70,604.97 593.00,604.97 C595.30,604.97 596.04,604.68 595.16,604.12 ZM 363.97 616.78 L 363.95 618.00 L 360.50 618.00 C362.71,618.00 363.78,617.63 363.97,616.78 ZM 783.04 288.10 C782.55,287.97 782.26,287.81 782.12,287.64 C781.92,287.40 781.76,287.11 781.65,286.76 C781.90,287.35 782.34,287.78 783.04,288.10 ZM 786.34 161.61 C784.70,171.46 782.96,182.18 782.04,188.00 C781.04,194.38 779.90,201.26 779.30,204.64 C779.90,201.26 781.04,194.38 782.04,188.00 C782.96,182.13 784.72,171.38 786.34,161.61 Z" fill="rgb(235,77,13)"/>
<path d="M 0.00 378.00 L 0.00 0.00 L 693.50 0.00 L 1387.00 0.00 L 1387.00 378.00 L 1387.00 756.00 L 693.50 756.00 L 0.00 756.00 L 0.00 378.00 ZM 1086.50 626.50 C1086.50,622.48 1082.98,622.24 1081.93,626.19 C1081.08,629.35 1081.67,630.19 1084.46,629.79 C1086.00,629.57 1086.50,628.76 1086.50,626.50 ZM 830.49 626.83 C835.13,623.18 836.00,619.51 836.00,603.53 L 836.00 589.00 L 832.50 589.00 C830.58,589.00 829.00,589.51 829.00,590.12 C829.00,590.95 828.65,590.95 827.66,590.13 C826.92,589.52 826.02,589.31 825.66,589.68 C825.30,590.04 825.00,589.81 825.00,589.17 C825.00,588.51 823.52,588.00 821.58,588.00 C817.69,588.00 812.80,591.55 810.46,596.07 C808.77,599.34 808.49,607.00 810.06,607.00 C810.64,607.00 810.85,607.44 810.52,607.97 C810.19,608.50 811.46,610.62 813.33,612.67 C816.12,615.71 817.46,616.40 820.62,616.44 C822.76,616.47 825.56,616.11 826.85,615.65 C828.98,614.88 829.13,615.02 828.48,617.15 C827.17,621.40 825.90,622.19 821.06,621.76 C818.55,621.54 815.72,621.00 814.76,620.57 C813.45,619.99 812.79,620.38 812.14,622.15 C810.41,626.78 813.42,628.83 822.12,628.93 C826.43,628.98 828.37,628.50 830.49,626.83 ZM 1012.50 625.70 C1015.14,623.06 1015.94,621.30 1016.46,616.95 C1016.95,612.77 1016.72,595.71 1016.08,589.75 C1015.95,588.51 1010.20,588.91 1009.77,590.19 C1009.49,591.03 1008.67,590.89 1006.96,589.69 C1003.80,587.47 1000.24,587.56 996.31,589.95 C992.11,592.51 991.24,594.36 990.74,601.79 C990.38,607.08 990.67,608.52 992.67,611.47 C995.60,615.77 1001.27,617.80 1005.91,616.18 C1008.90,615.14 1009.00,615.20 1009.00,618.01 C1009.00,620.53 1008.55,620.99 1005.49,621.57 C1003.56,621.93 1000.02,621.93 997.62,621.57 C993.68,620.98 993.20,621.13 992.68,623.13 C991.59,627.28 994.46,628.84 1003.35,628.94 C1008.68,628.99 1009.50,628.70 1012.50,625.70 ZM 394.74 616.43 C397.73,614.47 401.00,607.86 401.00,603.75 C401.00,601.92 399.99,598.42 398.75,595.96 C391.84,582.27 373.99,587.85 374.00,603.70 C374.01,612.69 380.82,619.64 388.50,618.50 C390.70,618.17 393.51,617.24 394.74,616.43 ZM 422.25 618.03 L 427.00 618.10 L 427.00 607.48 C427.00,601.35 426.51,595.95 425.84,594.70 C424.55,592.30 422.00,589.50 422.00,590.50 C422.00,590.85 421.29,590.44 420.43,589.57 C417.09,586.23 405.00,588.88 405.00,592.95 C405.00,594.08 405.48,595.00 406.06,595.00 C406.64,595.00 406.80,595.52 406.40,596.16 C405.89,596.98 406.38,597.10 408.09,596.55 C415.78,594.12 420.30,595.12 419.28,599.04 C418.85,600.67 417.89,601.00 413.61,601.00 C408.41,601.00 403.41,603.24 404.54,605.07 C404.86,605.58 404.64,606.00 404.06,606.00 C402.51,606.00 402.77,610.65 404.50,614.00 C406.57,618.00 408.82,619.12 413.50,618.50 C415.70,618.20 419.64,617.99 422.25,618.03 ZM 709.07 616.84 C713.14,614.55 714.28,612.90 713.39,610.58 C712.52,608.30 710.10,607.90 706.99,609.51 C703.35,611.39 700.66,611.40 697.06,609.53 C690.48,606.13 690.40,591.53 696.94,588.03 C699.82,586.49 705.25,586.79 707.87,588.62 C710.06,590.15 710.32,590.12 712.33,588.11 C714.00,586.44 714.24,585.59 713.41,584.24 C710.74,579.87 701.47,577.73 695.32,580.07 C691.85,581.38 687.87,584.98 688.59,586.15 C688.89,586.63 688.43,587.28 687.57,587.61 C686.71,587.94 686.26,588.61 686.56,589.10 C686.87,589.60 686.61,590.00 686.00,590.00 C685.39,590.00 685.15,590.43 685.47,590.96 C685.80,591.49 685.54,592.76 684.90,593.79 C683.42,596.15 684.57,606.42 686.52,608.38 C687.28,609.14 687.63,610.04 687.29,610.38 C686.95,610.72 687.22,611.00 687.89,611.00 C688.57,611.00 688.86,611.42 688.55,611.92 C687.93,612.92 692.33,616.40 696.15,617.93 C700.11,619.52 705.04,619.11 709.07,616.84 ZM 768.65 616.49 C777.04,610.99 777.13,595.99 768.80,590.63 C765.60,588.57 759.00,587.44 759.00,588.95 C759.00,589.59 758.53,589.83 757.96,589.47 C756.24,588.42 752.17,591.75 750.01,595.97 C747.66,600.59 747.42,605.99 749.41,609.80 C750.96,612.76 755.63,617.41 758.00,618.34 C760.30,619.25 765.93,618.27 768.65,616.49 ZM 949.25 617.92 L 954.00 618.10 L 954.00 603.55 L 954.00 589.00 L 950.50 589.00 L 947.00 589.00 L 947.00 597.87 C947.00,605.32 946.67,607.15 944.93,609.37 C942.39,612.59 940.98,612.67 938.22,609.73 C936.43,607.82 936.04,606.03 935.79,598.48 L 935.50 589.50 L 932.49 589.35 L 929.47 589.19 L 929.17 598.97 C928.81,610.83 930.27,615.33 935.21,617.53 C937.19,618.41 939.70,618.75 941.50,618.37 C943.15,618.02 946.64,617.82 949.25,617.92 ZM 276.27 614.00 L 277.84 610.00 L 284.77 610.00 L 291.70 610.00 L 293.27 614.00 C294.69,617.63 295.17,618.00 298.42,618.00 C302.81,618.00 302.86,617.36 299.16,608.39 C297.60,604.60 294.83,597.01 293.00,591.52 C291.18,586.03 289.11,580.97 288.41,580.27 C286.91,578.77 280.59,578.52 281.50,580.00 C281.84,580.55 281.64,581.00 281.06,581.00 C280.48,581.00 280.08,581.34 280.17,581.75 C280.27,582.16 279.85,583.62 279.24,585.00 C275.67,593.04 268.39,614.77 268.78,616.25 C269.07,617.38 270.20,618.00 271.96,618.00 C274.22,618.00 274.97,617.31 276.27,614.00 ZM 312.79 608.53 C313.11,598.88 314.41,596.00 318.45,596.00 C322.30,596.00 323.00,597.87 323.00,608.20 L 323.00 618.00 L 326.50 618.00 L 330.00 618.00 L 330.00 607.07 C330.00,601.05 329.57,595.01 329.05,593.64 C327.64,589.91 322.09,587.61 317.55,588.86 C315.55,589.41 312.37,589.61 310.48,589.30 C308.05,588.91 306.91,589.15 306.60,590.12 C306.36,590.88 305.92,597.49 305.61,604.81 L 305.06 618.12 L 308.78 617.81 L 312.50 617.50 L 312.79 608.53 ZM 364.22 602.75 L 364.50 587.50 L 369.00 587.00 C373.38,586.51 373.50,586.41 373.50,583.00 L 373.50 579.50 L 360.50 579.50 L 347.50 579.50 L 347.50 583.00 C347.50,586.39 347.63,586.51 351.63,586.80 C355.54,587.09 355.79,587.30 356.37,590.80 C356.70,592.84 356.98,599.79 356.99,606.25 L 357.00 618.00 L 360.47 618.00 L 363.95 618.00 L 364.22 602.75 ZM 440.00 608.57 C440.00,599.58 440.12,599.05 442.63,597.07 C445.90,594.51 446.50,594.50 449.00,597.00 C450.72,598.72 451.00,600.33 451.00,608.50 L 451.00 618.00 L 454.50 618.00 L 458.00 618.00 L 458.00 606.40 L 458.00 594.80 L 454.60 591.40 C452.20,589.00 450.29,588.00 448.10,588.00 C446.39,588.00 445.00,588.34 445.00,588.75 C445.00,589.16 442.65,589.64 439.77,589.81 C436.89,589.99 434.30,590.36 434.02,590.65 C433.32,591.35 433.04,612.93 433.69,615.75 C434.09,617.44 434.93,618.00 437.11,618.00 L 440.00 618.00 L 440.00 608.57 ZM 521.00 607.74 C521.28,602.37 521.92,597.87 522.43,597.74 C522.94,597.61 526.56,602.00 530.47,607.50 C536.67,616.23 537.98,617.54 540.79,617.81 L 544.00 618.13 L 544.00 599.12 C544.00,586.85 543.63,579.89 542.94,579.46 C542.36,579.11 540.79,579.09 539.44,579.42 C537.06,580.02 537.00,580.27 537.00,589.96 C537.00,595.42 536.56,600.16 536.02,600.49 C535.48,600.82 533.39,598.49 531.38,595.30 C521.30,579.29 516.02,575.14 514.62,582.12 C513.62,587.15 513.91,612.62 515.00,615.50 C515.74,617.45 516.59,618.06 518.25,617.82 C520.37,617.52 520.53,616.92 521.00,607.74 ZM 557.17 608.60 C557.62,598.37 558.68,596.00 562.79,596.00 C567.85,596.00 569.00,598.36 569.00,608.72 L 569.00 618.13 L 572.25 617.81 L 575.50 617.50 L 575.35 607.45 C575.10,591.36 571.70,586.33 562.70,588.74 C560.40,589.35 558.34,589.68 558.13,589.47 C557.92,589.26 557.62,586.93 557.46,584.29 C557.30,581.66 557.13,579.16 557.09,578.75 C557.04,578.34 555.65,578.00 554.00,578.00 L 551.00 578.00 L 551.00 598.00 L 551.00 618.00 L 553.88 618.00 L 556.76 618.00 L 557.17 608.60 ZM 595.80 616.80 C596.73,615.87 597.00,615.87 597.00,616.80 C597.00,617.50 598.44,618.00 600.50,618.00 L 604.00 618.00 L 604.00 608.47 C604.00,593.29 601.13,589.00 590.97,589.00 C584.27,589.00 581.44,590.65 582.48,593.92 C583.13,595.99 583.61,596.14 587.67,595.53 C590.96,595.03 592.77,595.28 594.57,596.45 C598.31,598.90 597.70,601.00 593.25,601.01 C587.74,601.01 582.17,602.82 581.01,604.98 C579.21,608.34 579.84,612.93 582.45,615.55 C584.39,617.48 585.94,618.00 589.75,618.00 C592.42,618.00 595.14,617.46 595.80,616.80 ZM 617.00 608.83 C617.00,598.54 618.21,596.00 623.12,596.00 C627.09,596.00 628.00,598.42 628.00,608.93 L 628.00 618.00 L 631.50 618.00 L 635.00 618.00 L 635.00 607.15 C635.00,597.50 634.75,595.92 632.71,592.90 C630.61,589.77 629.98,589.49 624.96,589.34 C621.96,589.26 618.94,589.65 618.25,590.22 C617.56,590.78 617.00,590.85 617.00,590.37 C616.99,589.89 615.42,589.42 613.50,589.32 L 610.00 589.14 L 610.00 603.57 L 610.00 618.00 L 613.50 618.00 L 617.00 618.00 L 617.00 608.83 ZM 648.00 609.22 C648.00,599.14 649.39,596.00 653.86,596.00 C658.35,596.00 659.00,597.54 659.00,608.20 L 659.00 618.00 L 662.58 618.00 L 666.17 618.00 L 665.83 606.08 C665.52,594.98 665.33,593.97 663.00,591.47 C660.68,588.98 660.05,588.82 654.25,589.28 L 648.00 589.77 L 648.00 583.32 L 648.00 576.87 L 644.75 577.19 L 641.50 577.50 L 641.23 597.75 L 640.96 618.00 L 644.48 618.00 L 648.00 618.00 L 648.00 609.22 ZM 726.00 608.93 C726.00,598.09 726.86,596.00 731.34,596.00 C736.39,596.00 737.00,597.31 737.00,608.20 L 737.00 618.00 L 740.61 618.00 L 744.22 618.00 L 743.82 606.75 C743.39,594.41 742.56,592.16 737.44,589.40 C734.48,587.80 731.69,587.82 727.80,589.46 C726.32,590.08 726.06,589.36 725.80,583.84 C725.50,577.53 725.49,577.50 722.50,577.50 L 719.50 577.50 L 719.23 596.47 C719.08,606.90 719.18,616.01 719.45,616.72 C719.72,617.42 721.30,618.00 722.97,618.00 L 726.00 618.00 L 726.00 608.93 ZM 785.80 616.80 C786.54,616.06 787.00,612.44 787.00,607.37 C787.00,601.22 787.40,598.75 788.57,597.57 C790.48,595.67 795.35,595.51 796.84,597.30 C797.43,598.02 798.05,602.86 798.21,608.05 L 798.50 617.50 L 801.75 617.81 L 805.00 618.13 L 804.98 607.81 C804.97,598.97 804.65,596.93 802.71,593.50 C800.94,590.38 799.59,589.29 796.55,588.53 C793.64,587.81 792.54,587.87 792.24,588.79 C792.01,589.46 791.40,589.75 790.87,589.42 C790.34,589.09 789.26,589.37 788.46,590.04 C787.43,590.89 787.00,590.91 787.00,590.12 C787.00,589.51 785.42,589.00 783.50,589.00 L 780.00 589.00 L 780.00 603.50 C780.00,617.96 780.01,618.00 782.30,618.00 C783.57,618.00 785.14,617.46 785.80,616.80 ZM 916.68 615.41 C923.28,610.50 926.09,598.91 922.65,590.72 C920.90,586.55 916.08,580.83 914.91,581.56 C914.41,581.87 914.00,581.67 914.00,581.12 C914.00,580.57 913.21,580.08 912.25,580.02 C911.29,579.97 907.66,579.67 904.18,579.37 C900.71,579.06 896.77,579.09 895.43,579.43 C893.14,580.00 893.00,580.45 893.00,587.11 C893.00,593.35 892.76,594.25 891.00,594.71 C889.61,595.07 889.00,596.07 889.00,598.00 C889.00,599.93 889.61,600.93 891.00,601.29 C892.79,601.76 893.00,602.65 893.00,610.00 L 893.00 618.18 L 903.43 617.84 C912.11,617.56 914.33,617.15 916.68,615.41 ZM 967.00 609.22 C967.00,599.14 968.39,596.00 972.86,596.00 C976.73,596.00 978.00,597.72 978.01,602.95 C978.01,605.45 978.30,609.86 978.65,612.75 C979.25,617.75 979.42,618.00 982.22,618.00 L 985.17 618.00 L 984.83 606.08 C984.53,595.11 984.31,593.95 982.10,591.61 C980.79,590.21 979.32,589.30 978.85,589.59 C978.38,589.88 978.00,589.59 978.00,588.95 C978.00,588.15 976.83,587.99 974.25,588.45 C972.19,588.82 968.42,589.09 965.87,589.04 L 961.24 588.95 L 960.53 599.44 C960.13,605.21 960.12,611.75 960.49,613.96 C961.11,617.60 961.47,618.00 964.09,618.00 L 967.00 618.00 L 967.00 609.22 ZM 1044.21 610.25 L 1044.50 602.50 L 1051.50 602.50 L 1058.50 602.50 L 1058.79 610.25 L 1059.08 618.00 L 1062.56 618.00 L 1066.04 618.00 L 1065.77 598.75 C1065.50,579.50 1065.50,579.50 1063.19,579.17 C1058.92,578.57 1057.70,580.74 1058.41,587.67 C1058.97,593.21 1058.83,594.02 1057.09,594.95 C1054.51,596.33 1049.72,596.28 1046.55,594.84 C1044.18,593.76 1044.00,593.19 1044.00,586.95 C1044.00,579.93 1043.41,579.00 1038.95,579.00 C1037.16,579.00 1037.07,579.98 1037.28,598.50 L 1037.49 618.00 L 1040.70 618.00 L 1043.92 618.00 L 1044.21 610.25 ZM 1092.84 615.67 C1094.98,613.40 1094.98,613.29 1093.16,611.64 C1091.34,609.99 1088.00,610.29 1088.00,612.11 C1088.00,612.60 1086.88,613.00 1085.50,613.00 C1084.12,613.00 1083.00,612.62 1083.00,612.16 C1083.00,611.70 1081.88,610.81 1080.50,610.18 C1079.12,609.56 1078.00,608.36 1078.00,607.52 C1078.00,606.27 1079.61,606.00 1087.00,606.00 L 1096.00 606.00 L 1096.00 602.62 C1096.00,590.76 1085.24,583.98 1077.11,590.72 C1070.76,595.98 1069.21,603.58 1072.99,610.97 C1075.78,616.45 1078.44,618.00 1085.05,618.00 C1089.62,618.00 1091.05,617.57 1092.84,615.67 ZM 1108.79 608.05 C1108.95,602.86 1109.59,598.00 1110.20,597.25 C1110.83,596.50 1112.69,596.03 1114.39,596.20 C1118.65,596.62 1119.97,599.80 1119.99,609.75 L 1120.00 618.00 L 1123.00 618.00 L 1126.00 618.00 L 1125.96 606.75 C1125.93,594.43 1125.11,591.81 1120.58,589.46 C1116.98,587.59 1114.00,587.61 1111.29,589.51 C1109.92,590.47 1108.90,590.65 1108.51,590.01 C1108.16,589.45 1106.61,589.00 1105.06,589.00 C1101.42,589.00 1101.03,590.49 1101.01,604.55 C1101.00,616.51 1101.67,618.30 1105.99,617.79 C1108.45,617.51 1108.51,617.30 1108.79,608.05 ZM 497.00 602.47 L 497.00 599.93 L 485.75 600.22 C474.94,600.49 474.49,600.59 474.18,602.75 C473.86,604.97 474.00,605.00 485.43,605.00 L 497.00 605.00 L 497.00 602.47 ZM 874.82 602.75 C874.51,600.60 874.04,600.49 863.75,600.22 C853.82,599.95 853.00,600.07 853.00,601.80 C853.00,602.83 853.30,603.97 853.67,604.33 C854.03,604.70 859.01,605.00 864.74,605.00 C874.95,605.00 875.13,604.96 874.82,602.75 ZM 765.46 581.90 C769.27,578.56 769.28,577.00 765.51,577.00 C764.03,577.00 762.36,578.10 761.07,579.90 C756.96,585.67 759.74,586.93 765.46,581.90 ZM 945.92 581.59 C949.46,577.93 949.32,576.00 945.52,576.00 C943.24,576.00 939.00,581.11 939.00,583.87 C939.00,586.13 942.69,584.92 945.92,581.59 ZM 418.00 583.40 C418.00,583.08 417.22,581.48 416.26,579.86 C414.49,576.87 411.16,575.34 408.59,576.33 C406.47,577.14 412.87,583.99 415.75,583.99 C416.99,584.00 418.00,583.73 418.00,583.40 ZM 348.00 566.00 C350.43,563.57 350.59,559.31 348.35,556.83 C345.97,554.20 340.52,554.42 338.56,557.22 C336.47,560.20 336.60,562.22 339.07,565.37 C341.56,568.53 345.21,568.79 348.00,566.00 ZM 688.03 559.60 C690.21,558.15 692.00,556.60 692.00,556.14 C692.00,555.68 690.65,553.44 689.00,551.16 L 686.01 547.03 L 682.75 549.01 C678.71,551.48 674.89,551.54 672.00,549.20 L 669.78 547.40 L 673.97 545.51 C682.93,541.47 689.00,530.35 689.00,517.97 C689.00,504.77 683.34,495.26 672.21,489.78 C666.40,486.93 664.56,486.51 658.02,486.56 C645.46,486.65 636.61,492.08 631.12,503.08 C624.04,517.24 626.91,532.59 638.54,542.83 C641.05,545.04 645.16,547.55 647.67,548.40 C650.18,549.26 654.23,551.80 656.67,554.05 C663.71,560.54 670.23,563.20 677.78,562.67 C682.37,562.34 685.13,561.52 688.03,559.60 ZM 733.12 548.46 C738.78,546.46 744.52,540.81 746.74,535.06 C748.22,531.22 748.50,527.12 748.50,509.00 L 748.50 487.50 L 741.25 487.21 L 734.00 486.91 L 733.94 490.21 C733.23,532.05 733.27,531.78 727.85,534.58 C724.33,536.40 721.63,536.38 717.98,534.49 C712.97,531.90 712.57,530.10 712.01,508.00 L 711.50 487.50 L 704.12 487.20 L 696.75 486.91 L 697.17 510.28 C697.59,533.26 697.64,533.72 700.20,538.07 C701.62,540.51 703.69,543.31 704.79,544.31 C710.49,549.46 724.46,551.51 733.12,548.46 ZM 798.59 547.88 C805.92,545.14 811.26,540.24 814.64,533.16 C816.98,528.26 817.35,526.22 817.37,518.00 C817.40,509.67 817.08,507.89 814.79,503.50 C811.43,497.07 805.81,491.69 799.50,488.85 C792.74,485.81 781.45,485.72 774.95,488.65 C758.05,496.29 751.73,516.57 760.58,534.73 C766.87,547.65 783.68,553.46 798.59,547.88 ZM 867.00 547.57 C868.92,546.58 872.19,544.16 874.25,542.18 L 878.01 538.59 L 873.80 534.29 C869.63,530.05 866.76,528.96 865.43,531.11 C865.05,531.73 862.74,533.11 860.30,534.19 C849.46,538.99 839.00,531.03 839.00,517.99 C839.00,511.92 840.65,508.39 845.48,504.15 C850.21,499.99 857.05,499.74 863.00,503.50 C865.18,504.88 867.55,506.00 868.27,506.00 C868.99,506.00 871.50,504.04 873.85,501.65 L 878.11 497.31 L 874.36 494.01 C865.96,486.63 854.31,484.57 843.01,488.44 C835.71,490.94 827.93,498.77 825.36,506.19 C823.11,512.72 823.14,524.58 825.44,530.93 C828.34,538.96 834.94,545.36 843.70,548.62 C848.89,550.55 862.34,549.94 867.00,547.57 ZM 995.71 547.67 C1000.44,545.19 1003.95,541.30 1006.62,535.58 C1008.87,530.73 1008.98,529.51 1008.99,508.75 L 1009.00 487.00 L 1001.48 487.00 L 993.96 487.00 L 994.07 506.88 C994.15,523.31 993.89,527.31 992.57,529.87 C990.86,533.17 986.45,536.00 983.00,536.00 C980.10,536.00 975.42,533.44 974.38,531.29 C973.90,530.30 973.28,520.05 973.00,508.50 L 972.50 487.50 L 964.63 487.21 L 956.76 486.91 L 957.24 509.21 C957.75,533.26 958.19,535.51 963.67,542.02 C965.18,543.82 968.69,546.37 971.46,547.69 C975.79,549.76 977.63,550.05 984.50,549.73 C989.39,549.50 993.75,548.70 995.71,547.67 ZM 298.19 535.50 C300.92,528.35 304.31,519.58 305.72,516.00 C312.65,498.36 315.97,489.38 315.98,488.25 C316.00,487.36 313.86,487.00 308.61,487.00 L 301.22 487.00 L 298.18 494.75 C296.51,499.01 293.31,507.42 291.08,513.44 C288.85,519.45 286.59,524.81 286.05,525.35 C285.05,526.35 282.15,520.65 279.50,512.50 C278.79,510.30 276.39,503.77 274.17,498.00 L 270.14 487.50 L 262.07 487.21 C256.00,486.99 254.00,487.24 254.00,488.21 C254.00,488.92 258.72,501.42 264.49,516.00 C270.26,530.58 274.99,542.96 274.99,543.53 C275.00,544.09 275.71,545.57 276.59,546.82 C278.03,548.88 278.84,549.06 285.69,548.79 L 293.21 548.50 L 298.19 535.50 ZM 329.59 543.00 L 331.80 537.50 L 343.60 537.50 L 355.40 537.50 L 357.50 543.00 L 359.59 548.50 L 367.30 548.79 C376.73,549.15 376.64,549.53 370.58,534.50 C368.14,528.45 362.86,515.27 358.84,505.21 L 351.54 486.93 L 343.57 487.21 L 335.61 487.50 L 323.83 517.00 C317.35,533.22 312.04,547.08 312.03,547.79 C312.01,548.76 313.91,549.01 319.69,548.79 L 327.38 548.50 L 329.59 543.00 ZM 396.23 532.99 L 396.50 516.98 L 399.79 521.24 C401.60,523.58 406.05,529.55 409.68,534.50 C420.30,548.97 420.33,549.00 427.70,549.00 L 434.03 549.00 L 433.76 518.25 L 433.50 487.50 L 426.27 487.21 L 419.05 486.91 L 418.77 503.66 L 418.50 520.41 L 406.00 503.70 L 393.50 486.98 L 387.50 487.24 L 381.50 487.50 L 381.24 518.25 L 380.97 549.00 L 388.46 549.00 L 395.95 549.00 L 396.23 532.99 ZM 496.23 525.25 L 496.50 501.50 L 504.79 501.21 L 513.09 500.92 L 512.79 494.21 L 512.50 487.50 L 488.25 487.23 L 464.00 486.96 L 464.00 493.94 L 464.00 500.92 L 472.25 501.21 L 480.50 501.50 L 480.76 524.00 C480.90,536.38 481.22,547.06 481.47,547.75 C481.78,548.59 484.25,549.00 488.95,549.00 L 495.96 549.00 L 496.23 525.25 ZM 528.29 543.52 C529.31,540.78 530.67,538.19 531.32,537.78 C533.02,536.70 550.41,536.83 553.35,537.94 C554.71,538.46 556.12,539.92 556.48,541.19 C558.73,549.15 558.53,549.00 567.12,549.00 C572.76,549.00 575.00,548.64 575.00,547.75 C574.99,547.06 573.60,543.12 571.89,539.00 C570.19,534.88 564.98,522.06 560.32,510.51 C555.66,498.97 551.36,488.94 550.77,488.22 C550.02,487.31 547.42,487.01 542.17,487.21 L 534.64 487.50 L 532.74 492.50 C531.70,495.25 529.56,500.65 528.00,504.50 C526.44,508.35 523.61,515.33 521.71,520.00 C512.95,541.61 511.00,546.66 511.00,547.83 C511.00,548.75 513.04,549.01 518.72,548.79 L 526.44 548.50 L 528.29 543.52 ZM 595.50 518.00 L 595.50 487.50 L 588.00 487.50 L 580.50 487.50 L 580.28 517.00 C580.15,533.22 580.26,547.08 580.51,547.79 C580.84,548.73 582.98,549.01 588.24,548.79 L 595.50 548.50 L 595.50 518.00 ZM 934.02 526.25 C934.02,513.74 934.38,502.96 934.80,502.30 C935.26,501.57 938.71,500.98 943.53,500.80 L 951.50 500.50 L 951.50 494.00 L 951.50 487.50 L 929.00 487.22 C916.62,487.06 905.47,487.19 904.20,487.50 C902.07,488.02 901.93,488.51 902.20,494.28 L 902.50 500.50 L 910.75 500.79 L 919.00 501.08 L 919.00 524.37 C919.00,537.18 919.30,547.97 919.67,548.33 C920.03,548.70 923.41,549.00 927.17,549.00 L 934.00 549.00 L 934.02 526.25 ZM 1029.33 543.34 C1031.53,537.21 1031.98,537.03 1045.32,537.01 L 1055.15 537.00 L 1057.74 543.00 L 1060.33 549.00 L 1068.16 549.00 C1074.24,549.00 1076.00,548.68 1076.00,547.59 C1076.00,546.81 1074.39,542.42 1072.43,537.84 C1070.46,533.25 1065.23,520.50 1060.79,509.50 C1056.35,498.50 1052.28,488.94 1051.74,488.25 C1051.11,487.46 1048.12,487.00 1043.54,487.00 C1037.02,487.00 1036.22,487.22 1035.31,489.25 C1034.76,490.49 1030.83,500.27 1026.59,511.00 C1022.34,521.72 1017.33,534.26 1015.44,538.86 C1013.56,543.45 1012.27,547.63 1012.59,548.15 C1012.91,548.66 1016.39,548.95 1020.33,548.79 L 1027.48 548.50 L 1029.33 543.34 ZM 1096.05 532.75 L 1096.10 516.50 L 1099.04 520.00 C1100.66,521.92 1105.94,529.12 1110.77,536.00 L 1119.55 548.50 L 1126.27 548.80 L 1133.00 549.09 L 1133.15 519.55 C1133.23,503.30 1133.34,489.44 1133.40,488.75 C1133.47,487.85 1131.39,487.50 1126.00,487.50 L 1118.50 487.50 L 1118.42 500.50 C1118.31,517.33 1118.18,519.23 1117.12,518.57 C1116.64,518.28 1111.17,511.03 1104.98,502.47 L 1093.72 486.91 L 1087.61 487.21 L 1081.50 487.50 L 1081.24 518.25 L 1080.97 549.00 L 1088.49 549.00 L 1096.00 549.00 L 1096.05 532.75 ZM 549.38 479.00 C556.11,471.55 553.53,462.55 544.31,461.32 C541.94,461.00 538.98,461.40 536.71,462.35 C530.70,464.86 532.23,468.58 539.51,469.18 C542.81,469.44 543.56,469.90 543.83,471.83 C544.01,473.12 543.41,475.00 542.48,476.02 C540.91,477.75 540.92,478.03 542.65,480.40 C543.67,481.80 544.79,482.95 545.13,482.97 C545.48,482.99 547.39,481.20 549.38,479.00 ZM 340.10 478.92 L 343.99 475.84 L 347.72 478.92 C350.74,481.41 352.37,482.00 356.23,482.00 C358.85,482.00 361.00,481.74 361.00,481.43 C361.00,481.11 358.64,477.97 355.75,474.44 L 350.50 468.03 L 343.82 468.01 L 337.14 468.00 L 332.78 473.75 C326.21,482.40 326.27,482.00 331.55,482.00 C335.25,482.00 337.02,481.36 340.10,478.92 ZM 782.97 480.54 C785.11,477.96 787.86,477.74 790.64,479.93 C792.48,481.38 794.73,482.00 798.13,482.00 C800.81,482.00 803.00,481.68 803.00,481.28 C803.00,480.89 800.88,478.42 798.29,475.78 C793.69,471.11 793.43,471.00 787.50,471.00 C781.47,471.00 781.40,471.03 776.00,476.50 L 770.57 482.00 L 776.16 482.00 C779.85,482.00 782.17,481.50 782.97,480.54 ZM 1041.22 479.47 L 1044.23 476.94 L 1047.55 479.47 C1049.98,481.32 1052.09,482.00 1055.43,482.00 C1057.94,482.00 1059.98,481.66 1059.96,481.25 C1059.94,480.84 1057.95,478.36 1055.55,475.75 L 1051.18 471.00 L 1044.28 471.00 C1036.91,471.00 1036.80,471.07 1029.56,479.75 L 1027.69 482.00 L 1032.95 482.00 C1037.12,482.00 1038.84,481.48 1041.22,479.47 ZM 813.64 468.39 C820.32,462.74 820.28,462.00 813.33,462.02 C810.12,462.02 807.04,462.36 806.48,462.77 C804.98,463.84 798.00,472.25 798.00,472.98 C798.00,473.33 800.45,473.34 803.45,473.01 C807.90,472.52 809.78,471.66 813.64,468.39 ZM 1070.59 468.38 C1073.57,465.84 1076.00,463.36 1076.00,462.88 C1076.00,462.40 1073.18,462.00 1069.74,462.00 L 1063.47 462.00 L 1059.18 467.50 L 1054.88 473.00 L 1060.03 473.00 C1064.71,473.00 1065.68,472.58 1070.59,468.38 ZM 573.77 435.97 C593.40,431.44 608.78,414.50 612.04,393.82 C615.59,371.33 601.39,352.51 579.92,351.22 C566.01,350.38 554.94,355.12 544.10,366.53 C535.95,375.11 532.50,381.76 530.39,392.96 C529.08,399.90 529.01,402.39 530.00,407.39 C532.83,421.79 541.15,431.45 554.29,435.55 C559.35,437.13 567.92,437.32 573.77,435.97 ZM 855.63 435.61 C864.38,433.28 872.68,428.15 879.18,421.07 C889.61,409.70 893.48,399.36 892.82,384.61 C892.46,376.61 892.00,374.73 889.05,369.21 C887.20,365.76 884.16,361.59 882.30,359.96 C866.65,346.22 842.34,348.63 825.35,365.61 C805.38,385.59 805.27,416.95 825.13,431.10 C832.76,436.53 845.25,438.37 855.63,435.61 ZM 517.57 390.25 C521.31,373.37 531.99,357.68 546.27,348.08 C548.89,346.32 550.78,344.45 550.46,343.94 C549.52,342.42 485.75,342.72 483.75,344.25 C482.62,345.12 481.35,350.14 479.56,360.85 C476.56,378.83 476.46,381.60 478.62,385.93 C481.69,392.09 484.63,392.99 501.73,393.00 L 516.96 393.00 L 517.57 390.25 ZM 749.16 388.50 C752.38,370.84 756.13,344.80 755.55,344.22 C754.55,343.22 602.99,342.70 603.06,343.70 C603.09,344.14 605.50,346.38 608.42,348.69 C611.34,350.99 615.13,354.99 616.85,357.58 C622.60,366.26 626.69,380.69 625.39,387.69 C625.07,389.44 625.10,391.35 625.46,391.94 C625.93,392.69 644.57,392.94 687.28,392.76 L 748.44 392.50 L 749.16 388.50 ZM 797.88 390.75 C798.34,389.51 799.49,386.02 800.44,383.00 C805.96,365.46 823.74,346.89 840.83,340.82 C848.13,338.23 862.90,337.31 870.12,339.00 C891.66,344.03 906.00,362.28 906.00,384.66 L 906.00 393.00 L 933.35 393.00 C960.07,393.00 960.78,392.95 964.01,390.75 C969.85,386.78 970.82,384.45 973.68,367.69 C976.35,352.09 976.36,351.82 974.53,348.43 C973.21,345.97 971.58,344.66 968.84,343.83 C966.47,343.12 965.00,342.07 965.01,341.09 C965.01,340.22 966.81,328.71 969.01,315.52 C971.22,302.26 973.00,288.14 973.00,283.93 C973.00,276.62 972.76,275.84 967.20,264.90 C962.04,254.74 945.82,224.72 930.27,196.50 C922.28,182.00 920.17,179.18 915.07,176.19 L 910.50 173.50 L 855.52 173.50 L 800.53 173.50 L 799.82 177.50 C798.09,187.10 796.69,194.78 795.99,198.50 C795.58,200.70 793.39,213.75 791.12,227.50 C788.85,241.25 786.54,255.09 786.00,258.25 C785.45,261.41 784.51,266.81 783.92,270.25 C783.33,273.69 782.42,278.69 781.90,281.38 C781.24,284.83 781.30,286.66 782.12,287.64 C783.06,288.78 789.97,288.98 821.84,288.76 L 860.43 288.50 L 861.16 285.50 C861.57,283.85 862.16,281.25 862.48,279.72 C862.94,277.48 863.38,277.11 864.71,277.86 C868.08,279.74 892.86,299.54 893.40,300.79 C893.75,301.57 892.20,303.12 889.41,304.79 C886.90,306.28 879.98,310.72 874.03,314.65 C868.07,318.58 861.06,323.05 858.44,324.59 L 853.69 327.37 L 854.32 323.44 C854.67,321.27 855.22,318.38 855.55,317.00 L 856.13 314.50 L 816.60 314.21 L 777.06 313.91 L 776.54 316.21 C776.25,317.47 775.11,324.35 774.00,331.50 C772.88,338.65 771.73,345.85 771.44,347.50 C769.21,360.09 764.00,391.32 764.00,392.07 C764.00,392.61 770.97,393.00 780.52,393.00 C796.74,393.00 797.06,392.96 797.88,390.75 ZM 759.47 324.75 C761.18,314.75 769.11,266.37 770.07,260.00 C770.70,255.88 772.25,246.43 773.52,239.00 C774.80,231.57 776.36,222.12 777.00,218.00 C777.64,213.88 778.56,208.48 779.05,206.00 C779.53,203.52 780.88,195.43 782.04,188.00 C783.21,180.57 785.73,165.17 787.65,153.77 C789.57,142.36 790.99,131.79 790.82,130.27 L 790.50 127.50 L 661.50 127.21 C572.13,127.01 531.36,127.24 528.80,127.98 C521.37,130.13 515.74,137.05 516.17,143.51 L 516.41 147.00 L 537.75 147.00 C561.94,147.00 564.01,147.48 566.01,153.52 C566.65,155.48 566.97,157.63 566.72,158.29 C566.46,158.96 566.22,159.87 566.18,160.32 C566.14,160.77 564.45,162.45 562.42,164.07 L 558.72 167.00 L 518.86 167.00 C491.47,167.00 479.00,167.33 479.00,168.06 C479.00,168.64 478.56,168.85 478.03,168.52 C476.65,167.67 471.26,170.65 470.03,172.94 C469.46,174.00 469.00,176.70 469.00,178.93 C469.00,184.43 471.62,187.00 477.25,187.01 C479.59,187.02 505.95,187.13 535.84,187.26 L 590.17 187.50 L 592.59 190.31 C596.05,194.33 595.80,199.02 591.90,203.47 C590.19,205.41 588.16,207.00 587.40,207.00 C586.63,207.00 586.00,207.45 586.00,208.00 C586.00,208.65 570.54,209.00 541.63,209.00 C497.37,209.00 497.26,209.00 494.38,211.22 C490.47,214.22 490.03,214.98 490.02,218.83 C490.00,221.18 490.85,223.01 492.92,225.08 L 495.85 228.00 L 552.52 228.00 L 609.20 228.00 L 612.10 231.11 C615.65,234.91 615.72,236.89 612.51,241.99 C607.71,249.59 613.75,249.14 520.12,248.80 L 436.35 248.50 L 432.75 251.50 C429.58,254.13 429.14,255.07 429.07,259.18 C429.01,263.09 429.43,264.20 431.63,265.93 C434.22,267.96 435.23,268.00 486.38,268.07 C515.05,268.11 539.40,268.49 540.50,268.92 C541.60,269.35 542.52,270.11 542.55,270.60 C542.58,271.10 542.96,272.56 543.40,273.85 C544.65,277.53 541.46,284.70 537.66,286.75 C534.97,288.20 531.33,288.45 513.21,288.47 C492.74,288.50 491.90,288.58 491.48,290.50 C490.58,294.66 486.67,318.56 486.66,320.00 C486.65,320.83 486.72,322.96 486.82,324.75 L 487.00 328.00 L 622.95 328.00 L 758.91 328.00 L 759.47 324.75 ZM 411.02 266.49 C414.80,264.54 416.00,262.17 416.00,256.68 C416.00,250.46 414.08,249.45 400.76,248.71 C389.33,248.07 389.92,247.89 385.17,253.47 C382.19,256.96 382.61,263.06 386.02,266.02 C387.97,267.71 389.78,268.00 398.20,268.00 C405.07,268.00 408.99,267.54 411.02,266.49 ZM 472.65 226.07 C476.26,223.87 478.54,218.30 477.51,214.20 C476.69,210.90 475.07,208.84 473.89,209.57 C473.40,209.87 473.00,209.75 473.00,209.31 C473.01,207.97 447.77,209.35 445.16,210.83 C443.88,211.56 443.07,212.40 443.37,212.70 C443.66,213.00 443.21,213.94 442.35,214.79 C440.11,217.03 441.28,222.94 444.52,225.75 C446.88,227.80 448.13,228.00 458.31,228.00 C467.58,227.99 470.04,227.66 472.65,226.07 ZM 449.80 186.11 C452.51,184.65 454.00,181.21 454.00,176.37 C454.00,172.36 452.35,168.66 450.95,169.53 C450.43,169.85 450.00,169.66 450.00,169.09 C450.00,168.53 449.33,168.32 448.50,168.64 C447.67,168.95 447.00,168.68 447.00,168.04 C447.00,167.17 443.02,166.97 431.75,167.28 C411.35,167.85 409.45,168.28 406.70,172.94 C402.50,180.04 405.86,186.61 414.00,187.19 C424.90,187.97 447.60,187.29 449.80,186.11 ZM 820.32 608.98 C813.40,606.23 815.51,595.67 822.99,595.67 C826.91,595.67 829.00,598.04 829.00,602.50 C829.00,607.82 824.96,610.84 820.32,608.98 ZM 1000.87 609.18 C997.87,607.68 997.47,607.00 997.20,602.91 C996.85,597.57 998.43,595.67 1003.21,595.67 C1009.84,595.67 1011.94,603.72 1006.59,608.68 C1004.31,610.79 1004.12,610.81 1000.87,609.18 ZM 382.56 608.78 C380.41,605.71 380.55,599.71 382.83,597.65 C384.98,595.71 390.32,595.46 391.77,597.25 C392.32,597.94 392.96,600.53 393.19,603.00 C393.52,606.63 393.20,607.83 391.55,609.22 C388.63,611.66 384.44,611.46 382.56,608.78 ZM 411.57 611.43 C409.63,609.48 409.60,608.58 411.43,607.05 C413.19,605.60 419.20,606.05 419.74,607.69 C420.22,609.17 416.50,613.00 414.57,613.00 C413.79,613.00 412.44,612.29 411.57,611.43 ZM 756.88 608.88 C755.21,607.21 754.88,605.96 755.29,602.84 C755.98,597.72 757.53,596.00 761.47,596.00 C765.74,596.00 768.00,598.65 768.00,603.67 C768.00,610.50 761.53,613.53 756.88,608.88 ZM 280.25 601.75 C280.50,601.06 281.49,598.12 282.45,595.21 C283.87,590.88 284.44,590.12 285.58,591.07 C286.35,591.71 286.73,592.63 286.43,593.11 C286.13,593.60 286.26,594.00 286.73,594.00 C287.19,594.00 287.64,594.79 287.72,595.75 C287.80,596.71 288.18,598.74 288.55,600.25 C289.22,602.96 289.16,603.00 284.51,603.00 C281.15,603.00 279.92,602.64 280.25,601.75 ZM 587.93 611.42 C585.83,608.89 588.03,606.55 592.85,606.19 C597.61,605.84 598.40,607.60 595.00,611.00 C592.59,613.41 589.72,613.57 587.93,611.42 ZM 901.25 610.39 C900.56,610.08 900.00,608.09 900.00,605.92 C900.00,602.80 900.37,602.00 901.81,602.00 C904.62,602.00 907.20,599.67 906.47,597.78 C906.12,596.87 904.52,595.83 902.92,595.48 C900.30,594.91 900.00,594.44 900.00,590.92 L 900.00 587.00 L 905.10 587.00 C909.57,587.00 910.62,587.42 913.60,590.40 C916.54,593.34 917.00,594.46 917.00,598.69 C917.00,605.62 913.27,610.04 906.99,610.57 C904.52,610.78 901.94,610.70 901.25,610.39 ZM 1077.00 599.61 C1077.00,597.75 1081.36,595.00 1084.31,595.00 C1086.76,595.00 1090.00,597.75 1090.00,599.83 C1090.00,600.60 1087.80,601.00 1083.50,601.00 C1078.63,601.00 1077.00,600.65 1077.00,599.61 ZM 649.06 531.43 C644.36,527.19 642.60,522.51 643.23,515.91 C644.09,507.02 650.16,501.00 658.26,501.00 C666.70,501.00 673.16,508.24 673.30,517.86 C673.45,527.65 666.83,535.00 657.85,535.00 C653.70,535.00 652.44,534.49 649.06,531.43 ZM 781.50 534.65 C772.99,530.75 769.52,518.76 774.14,509.22 C776.76,503.81 781.07,501.01 786.80,501.00 C792.71,501.00 796.45,503.20 799.58,508.54 C801.88,512.47 802.17,513.91 801.82,519.52 C801.38,526.32 799.70,529.64 794.85,533.26 C791.55,535.73 785.27,536.38 781.50,534.65 ZM 337.69 520.75 C338.04,518.96 339.53,514.67 340.99,511.22 L 343.66 504.93 L 346.28 511.72 C347.72,515.45 349.20,519.74 349.56,521.25 L 350.22 524.00 L 343.63 524.00 L 337.05 524.00 L 337.69 520.75 ZM 536.54 521.75 C538.37,515.69 540.68,509.30 541.69,507.55 C542.71,505.76 542.94,505.92 544.50,509.55 C545.43,511.72 547.03,515.86 548.04,518.75 L 549.89 524.00 L 542.88 524.00 C536.07,524.00 535.89,523.93 536.54,521.75 ZM 1038.21 524.15 C1036.84,523.28 1037.87,519.20 1041.83,509.88 L 1043.59 505.73 L 1045.10 508.12 C1045.93,509.43 1047.19,512.53 1047.91,515.00 C1048.62,517.47 1049.58,520.47 1050.04,521.65 C1050.71,523.39 1050.45,523.91 1048.68,524.39 C1045.52,525.23 1039.71,525.10 1038.21,524.15 ZM 561.40 412.14 C549.58,406.65 549.14,390.58 560.52,380.09 C569.54,371.77 581.57,372.31 587.02,381.27 C591.65,388.89 590.18,398.48 583.18,406.22 C576.80,413.29 568.65,415.50 561.40,412.14 ZM 842.45 412.64 C832.81,408.28 830.17,395.72 836.69,385.18 C839.91,379.97 846.73,375.24 852.33,374.33 C860.70,372.98 868.91,379.22 870.53,388.19 C871.88,395.62 866.39,406.12 858.67,410.90 C854.37,413.55 846.36,414.41 842.45,412.64 ZM 896.01 264.75 C896.00,264.34 880.53,264.00 861.62,264.00 C832.74,264.00 827.05,263.77 826.04,262.54 C825.08,261.39 825.36,257.88 827.37,245.79 C828.77,237.38 831.04,223.56 832.42,215.08 C833.79,206.59 835.50,199.09 836.21,198.40 C838.13,196.53 900.67,196.07 903.53,197.90 C904.65,198.62 907.15,202.20 909.08,205.85 C926.85,239.41 939.00,262.75 939.00,263.32 C939.00,263.69 937.20,264.00 935.00,264.00 C932.80,264.00 931.00,264.46 931.00,265.02 C931.00,265.69 924.92,265.95 913.51,265.77 C903.89,265.62 896.01,265.16 896.01,264.75 Z" fill="rgb(254,254,254)"/>
</g>
</svg>